G04 Layer_Color=8421504*
%FSLAX25Y25*%
%MOIN*%
G70*
G01*
G75*
%ADD10R,0.05512X0.04724*%
%ADD11R,0.04528X0.02362*%
%ADD12R,0.04724X0.05512*%
%ADD13O,0.08268X0.01925*%
%ADD14O,0.01925X0.08268*%
%ADD15R,0.08000X0.08000*%
D10*
X142500Y243543D02*
D03*
Y236457D02*
D03*
X132500Y236457D02*
D03*
Y243543D02*
D03*
X152500Y243543D02*
D03*
Y236457D02*
D03*
X165000Y243543D02*
D03*
Y236457D02*
D03*
X195000Y253543D02*
D03*
Y246457D02*
D03*
X180000Y253543D02*
D03*
Y246457D02*
D03*
X112500Y236457D02*
D03*
Y243543D02*
D03*
X92500Y243543D02*
D03*
Y236457D02*
D03*
X120000Y229232D02*
D03*
Y220768D02*
D03*
Y211732D02*
D03*
Y203268D02*
D03*
X117500Y99232D02*
D03*
Y90768D02*
D03*
Y84232D02*
D03*
Y75768D02*
D03*
X162500Y50768D02*
D03*
Y59232D02*
D03*
X155000Y58543D02*
D03*
Y51457D02*
D03*
X225000Y150768D02*
D03*
Y159232D02*
D03*
Y168268D02*
D03*
Y176732D02*
D03*
Y185768D02*
D03*
Y194232D02*
D03*
Y203268D02*
D03*
Y211732D02*
D03*
Y220768D02*
D03*
Y229232D02*
D03*
D11*
X103071Y225000D02*
D03*
X111929Y228740D02*
D03*
Y221260D02*
D03*
X103071Y207500D02*
D03*
X111929Y211240D02*
D03*
Y203760D02*
D03*
X114429Y178760D02*
D03*
Y186240D02*
D03*
X105571Y182500D02*
D03*
X109429Y126260D02*
D03*
Y133740D02*
D03*
X100571Y130000D02*
D03*
X109429Y108760D02*
D03*
Y116240D02*
D03*
X100571Y112500D02*
D03*
Y95000D02*
D03*
X109429Y98740D02*
D03*
Y91260D02*
D03*
X100571Y80000D02*
D03*
X109429Y83740D02*
D03*
Y76260D02*
D03*
X233071Y53740D02*
D03*
Y46260D02*
D03*
X241929Y50000D02*
D03*
X233071Y73740D02*
D03*
Y66260D02*
D03*
X241929Y70000D02*
D03*
X233071Y93740D02*
D03*
Y86260D02*
D03*
X241929Y90000D02*
D03*
Y110000D02*
D03*
X233071Y106260D02*
D03*
Y113740D02*
D03*
X241929Y155000D02*
D03*
X233071Y151260D02*
D03*
Y158740D02*
D03*
X241929Y172500D02*
D03*
X233071Y168760D02*
D03*
Y176240D02*
D03*
X241929Y190000D02*
D03*
X233071Y186260D02*
D03*
Y193740D02*
D03*
X241929Y207500D02*
D03*
X233071Y203760D02*
D03*
Y211240D02*
D03*
X241929Y225000D02*
D03*
X233071Y221260D02*
D03*
Y228740D02*
D03*
Y133740D02*
D03*
Y126260D02*
D03*
X241929Y130000D02*
D03*
D12*
X128543Y177500D02*
D03*
X121457D02*
D03*
X128543Y187500D02*
D03*
X121457D02*
D03*
X123543Y110000D02*
D03*
X116457D02*
D03*
X123543Y117500D02*
D03*
X116457D02*
D03*
X123543Y125000D02*
D03*
X116457D02*
D03*
X123543Y135000D02*
D03*
X116457D02*
D03*
X188543Y32500D02*
D03*
X181457D02*
D03*
X218957Y95000D02*
D03*
X226043D02*
D03*
X218957Y85000D02*
D03*
X226043D02*
D03*
X218957Y75000D02*
D03*
X226043D02*
D03*
X218957Y65000D02*
D03*
X226043D02*
D03*
X218957Y55000D02*
D03*
X226043D02*
D03*
X218957Y45000D02*
D03*
X226043D02*
D03*
X218957Y105000D02*
D03*
X226043D02*
D03*
X218957Y115000D02*
D03*
X226043D02*
D03*
X218957Y135000D02*
D03*
X226043D02*
D03*
X218957Y125000D02*
D03*
X226043D02*
D03*
X168957Y85000D02*
D03*
X176043D02*
D03*
X291043Y107500D02*
D03*
X283957D02*
D03*
D13*
X140020Y103878D02*
D03*
Y107028D02*
D03*
Y110177D02*
D03*
Y113327D02*
D03*
Y116476D02*
D03*
Y119626D02*
D03*
Y122776D02*
D03*
Y125925D02*
D03*
Y129075D02*
D03*
Y132224D02*
D03*
Y135374D02*
D03*
Y138524D02*
D03*
Y141673D02*
D03*
Y144823D02*
D03*
Y147972D02*
D03*
Y151122D02*
D03*
X204980D02*
D03*
Y147972D02*
D03*
Y144823D02*
D03*
Y141673D02*
D03*
Y138524D02*
D03*
Y135374D02*
D03*
Y132224D02*
D03*
Y129075D02*
D03*
Y125925D02*
D03*
Y122776D02*
D03*
Y119626D02*
D03*
Y116476D02*
D03*
Y113327D02*
D03*
Y110177D02*
D03*
Y107028D02*
D03*
Y103878D02*
D03*
D14*
X148878Y159980D02*
D03*
X152028D02*
D03*
X155177D02*
D03*
X158327D02*
D03*
X161476D02*
D03*
X164626D02*
D03*
X167776D02*
D03*
X170925D02*
D03*
X174075D02*
D03*
X177224D02*
D03*
X180374D02*
D03*
X183524D02*
D03*
X186673D02*
D03*
X189823D02*
D03*
X192972D02*
D03*
X196122D02*
D03*
Y95020D02*
D03*
X192972D02*
D03*
X189823D02*
D03*
X186673D02*
D03*
X183524D02*
D03*
X180374D02*
D03*
X177224D02*
D03*
X174075D02*
D03*
X170925D02*
D03*
X167776D02*
D03*
X164626D02*
D03*
X161476D02*
D03*
X158327D02*
D03*
X155177D02*
D03*
X152028D02*
D03*
X148878D02*
D03*
D15*
X190543Y60000D02*
D03*
X179457D02*
D03*
X293043Y95000D02*
D03*
X281957D02*
D03*
M02*
