G04 Layer_Color=8388736*
%FSLAX25Y25*%
%MOIN*%
G70*
G01*
G75*
%ADD30R,0.05524X0.06312*%
%ADD31R,0.05721X0.04737*%
%ADD32R,0.05918X0.04737*%
%ADD33R,0.04737X0.05721*%
%ADD34R,0.04737X0.05918*%
%ADD35R,0.08800X0.08800*%
%ADD36R,0.08800X0.08800*%
%ADD37P,0.07685X8X22.5*%
%ADD38R,0.07100X0.07100*%
%ADD39R,0.08800X0.07800*%
%ADD40C,0.12611*%
%ADD41C,0.02769*%
%ADD42P,0.07685X8X292.5*%
%ADD43R,0.07100X0.07100*%
%ADD44C,0.05800*%
D30*
X219232Y122500D02*
D03*
X210768D02*
D03*
X193268Y195000D02*
D03*
X201732D02*
D03*
X169232D02*
D03*
X160768D02*
D03*
X145768D02*
D03*
X154232D02*
D03*
X145768Y187500D02*
D03*
X154232D02*
D03*
X169232D02*
D03*
X160768D02*
D03*
X263268Y52500D02*
D03*
X271732D02*
D03*
X290768Y77500D02*
D03*
X299232D02*
D03*
X203268Y30000D02*
D03*
X211732D02*
D03*
X143268Y50000D02*
D03*
X151732D02*
D03*
X105768Y90000D02*
D03*
X114232D02*
D03*
X136732Y167500D02*
D03*
X128268D02*
D03*
X210768Y162500D02*
D03*
X219232D02*
D03*
X188268Y155000D02*
D03*
X196732D02*
D03*
X136732Y102500D02*
D03*
X128268D02*
D03*
X186732D02*
D03*
X178268D02*
D03*
X216732Y187500D02*
D03*
X208268D02*
D03*
X216732Y195000D02*
D03*
X208268D02*
D03*
X128268Y122500D02*
D03*
X136732D02*
D03*
X128268Y137500D02*
D03*
X136732D02*
D03*
X196732Y145000D02*
D03*
X188268D02*
D03*
X219232Y135000D02*
D03*
X210768D02*
D03*
X136732Y157500D02*
D03*
X128268D02*
D03*
X116732Y205000D02*
D03*
X108268D02*
D03*
X253268Y217500D02*
D03*
X261732D02*
D03*
D31*
X145472Y158740D02*
D03*
Y151260D02*
D03*
X127972Y183740D02*
D03*
Y176260D02*
D03*
D32*
X154606Y155000D02*
D03*
X137106Y180000D02*
D03*
D33*
X253740Y199528D02*
D03*
X246260D02*
D03*
D34*
X250000Y190394D02*
D03*
D35*
X195000Y90543D02*
D03*
Y79457D02*
D03*
D36*
X271957Y127500D02*
D03*
X283043D02*
D03*
D37*
X192500Y222500D02*
D03*
Y212500D02*
D03*
X170000Y222500D02*
D03*
Y212500D02*
D03*
X147500Y215000D02*
D03*
Y205000D02*
D03*
X130000Y202500D02*
D03*
Y192500D02*
D03*
X151142Y170000D02*
D03*
Y130000D02*
D03*
X181142Y170000D02*
D03*
X161142Y130000D02*
D03*
X181142D02*
D03*
X161142Y170000D02*
D03*
X171142Y130000D02*
D03*
Y170000D02*
D03*
X191142Y130000D02*
D03*
Y170000D02*
D03*
X201142D02*
D03*
X200827Y111614D02*
D03*
Y101614D02*
D03*
X161457Y111614D02*
D03*
Y101614D02*
D03*
X232323Y202165D02*
D03*
Y192165D02*
D03*
X214606Y213976D02*
D03*
Y203976D02*
D03*
X181142Y202165D02*
D03*
Y192165D02*
D03*
D38*
X201142Y130000D02*
D03*
D39*
X266469Y89311D02*
D03*
X291968Y106811D02*
D03*
X266469D02*
D03*
X291968Y89311D02*
D03*
X227098Y49941D02*
D03*
X252598Y67441D02*
D03*
X227098D02*
D03*
X252598Y49941D02*
D03*
X168043Y30256D02*
D03*
X193543Y47756D02*
D03*
X168043D02*
D03*
X193543Y30256D02*
D03*
X108988Y49941D02*
D03*
X134488Y67441D02*
D03*
X108988D02*
D03*
X134488Y49941D02*
D03*
X69618Y89311D02*
D03*
X95118Y106811D02*
D03*
X69618D02*
D03*
X95118Y89311D02*
D03*
D40*
X303189Y122362D02*
D03*
X59095D02*
D03*
X181142Y252284D02*
D03*
D41*
X260866Y149921D02*
D03*
X101417D02*
D03*
X181142Y70197D02*
D03*
D42*
X72500Y147500D02*
D03*
X82500D02*
D03*
X72500Y157500D02*
D03*
X82500D02*
D03*
Y177500D02*
D03*
Y187500D02*
D03*
Y197500D02*
D03*
X72500Y187500D02*
D03*
Y167500D02*
D03*
Y197500D02*
D03*
X82500Y167500D02*
D03*
Y207500D02*
D03*
X72500Y177500D02*
D03*
Y207500D02*
D03*
X282500Y147500D02*
D03*
X292500D02*
D03*
X282500Y157500D02*
D03*
X292500D02*
D03*
Y177500D02*
D03*
Y187500D02*
D03*
Y197500D02*
D03*
X282500Y187500D02*
D03*
Y167500D02*
D03*
Y197500D02*
D03*
X292500Y167500D02*
D03*
Y207500D02*
D03*
X282500Y177500D02*
D03*
Y207500D02*
D03*
D43*
X82500Y217500D02*
D03*
X72500D02*
D03*
X292500D02*
D03*
X282500D02*
D03*
D44*
X227500Y117500D02*
D03*
Y180000D02*
D03*
X235000D02*
D03*
X115000Y185000D02*
D03*
Y162500D02*
D03*
X235000Y155000D02*
D03*
Y117500D02*
D03*
Y150000D02*
D03*
X167500Y77500D02*
D03*
X147500D02*
D03*
X282500Y117500D02*
D03*
X252598D02*
D03*
M02*
