G04 Layer_Physical_Order=1*
G04 Layer_Color=255*
%FSLAX25Y25*%
%MOIN*%
G70*
G01*
G75*
%ADD10R,0.05512X0.04724*%
%ADD11R,0.04528X0.02362*%
%ADD12R,0.04724X0.05512*%
%ADD13O,0.08268X0.01925*%
%ADD14O,0.01925X0.08268*%
%ADD15R,0.08000X0.08000*%
%ADD16C,0.01900*%
%ADD17C,0.01300*%
%ADD18C,0.05200*%
%ADD19C,0.01000*%
%ADD20P,0.06819X8X202.5*%
%ADD21R,0.06300X0.06300*%
%ADD22P,0.06819X8X292.5*%
%ADD23R,0.06300X0.06300*%
%ADD24C,0.05000*%
G36*
X106598Y140553D02*
X106462Y140383D01*
X106342Y140203D01*
X106238Y140014D01*
X106150Y139816D01*
X106078Y139609D01*
X106022Y139392D01*
X105982Y139166D01*
X105958Y138932D01*
X105950Y138688D01*
X104050D01*
X104042Y138932D01*
X104018Y139166D01*
X103978Y139392D01*
X103922Y139609D01*
X103850Y139816D01*
X103762Y140014D01*
X103658Y140203D01*
X103538Y140383D01*
X103402Y140553D01*
X103250Y140715D01*
X106750D01*
X106598Y140553D01*
D02*
G37*
G36*
X105969Y136229D02*
X106026Y135906D01*
X106121Y135621D01*
X106254Y135374D01*
X106425Y135165D01*
X106634Y134994D01*
X106881Y134861D01*
X107166Y134766D01*
X107489Y134709D01*
X107850Y134690D01*
Y132790D01*
X107489Y132771D01*
X107166Y132714D01*
X106881Y132619D01*
X106634Y132486D01*
X106425Y132315D01*
X106254Y132106D01*
X106121Y131859D01*
X106026Y131574D01*
X105969Y131251D01*
X105950Y130890D01*
X104050Y133740D01*
X105950Y136590D01*
X105969Y136229D01*
D02*
G37*
G36*
X124150Y118238D02*
X124197Y118219D01*
X124255Y118203D01*
X124326Y118189D01*
X124408Y118177D01*
X124609Y118160D01*
X125000Y118150D01*
Y116850D01*
X124858Y116849D01*
X124326Y116811D01*
X124255Y116797D01*
X124197Y116780D01*
X124150Y116762D01*
X124115Y116742D01*
Y118259D01*
X124150Y118238D01*
D02*
G37*
G36*
X83676Y144361D02*
X83566Y144322D01*
X83469Y144256D01*
X83384Y144164D01*
X83312Y144046D01*
X83254Y143902D01*
X83209Y143731D01*
X83176Y143534D01*
X83157Y143311D01*
X83150Y143062D01*
X81850D01*
X81844Y143311D01*
X81824Y143534D01*
X81792Y143731D01*
X81746Y143902D01*
X81687Y144046D01*
X81616Y144164D01*
X81532Y144256D01*
X81434Y144322D01*
X81323Y144361D01*
X81200Y144374D01*
X83800D01*
X83676Y144361D01*
D02*
G37*
G36*
X73677D02*
X73566Y144322D01*
X73469Y144256D01*
X73384Y144164D01*
X73312Y144046D01*
X73254Y143902D01*
X73208Y143731D01*
X73176Y143534D01*
X73156Y143311D01*
X73150Y143062D01*
X71850D01*
X71843Y143311D01*
X71824Y143534D01*
X71791Y143731D01*
X71746Y143902D01*
X71688Y144046D01*
X71616Y144164D01*
X71531Y144256D01*
X71434Y144322D01*
X71324Y144361D01*
X71200Y144374D01*
X73800D01*
X73677Y144361D01*
D02*
G37*
G36*
X295536Y145777D02*
X295444Y145529D01*
X295364Y145189D01*
X295294Y144755D01*
X295186Y143607D01*
X295105Y141186D01*
X295100Y140193D01*
X289900D01*
X289895Y141186D01*
X289636Y145189D01*
X289556Y145529D01*
X289464Y145777D01*
X289362Y145931D01*
X295638D01*
X295536Y145777D01*
D02*
G37*
G36*
X105950Y90000D02*
X104050Y87150D01*
X104031Y87511D01*
X103974Y87834D01*
X103879Y88119D01*
X103746Y88366D01*
X103575Y88575D01*
X103366Y88746D01*
X103119Y88879D01*
X102834Y88974D01*
X102511Y89031D01*
X102150Y89050D01*
Y90950D01*
X102511Y90969D01*
X102834Y91026D01*
X103119Y91121D01*
X103366Y91254D01*
X103575Y91425D01*
X103746Y91634D01*
X103879Y91881D01*
X103974Y92166D01*
X104031Y92489D01*
X104050Y92850D01*
X105950Y90000D01*
D02*
G37*
G36*
X97153Y88309D02*
X96974Y88120D01*
X96827Y87938D01*
X96710Y87765D01*
X96623Y87600D01*
X96568Y87444D01*
X96543Y87296D01*
X96548Y87156D01*
X96585Y87024D01*
X96652Y86901D01*
X96750Y86785D01*
X93521Y87016D01*
X95389Y89232D01*
X97153Y88309D01*
D02*
G37*
G36*
X187623Y88358D02*
X187457Y85461D01*
X184895Y87498D01*
X185052Y87518D01*
X185193Y87565D01*
X185317Y87638D01*
X185425Y87738D01*
X185516Y87864D01*
X185591Y88017D01*
X185649Y88196D01*
X185690Y88402D01*
X185715Y88634D01*
X185723Y88893D01*
X187623Y88358D01*
D02*
G37*
G36*
X305100Y107500D02*
Y102300D01*
X299900Y99700D01*
Y99700D01*
X299848Y100688D01*
X299692Y101572D01*
X299432Y102352D01*
X299068Y103028D01*
X298600Y103600D01*
X298028Y104068D01*
X297352Y104432D01*
X296572Y104692D01*
X295688Y104848D01*
X294700Y104900D01*
Y110100D01*
X295688Y110152D01*
X296572Y110308D01*
X296832Y110395D01*
X297352Y110568D01*
X298028Y110932D01*
X298600Y111400D01*
X299068Y111972D01*
X299432Y112648D01*
X299692Y113428D01*
X299848Y114312D01*
X299900Y115300D01*
X299900Y115300D01*
Y115300D01*
X305100Y107500D01*
D02*
G37*
G36*
X170925Y102500D02*
X162500D01*
Y152500D01*
X170925D01*
Y102500D01*
D02*
G37*
G36*
X213469Y97489D02*
X213526Y97166D01*
X213621Y96881D01*
X213754Y96634D01*
X213925Y96425D01*
X214134Y96254D01*
X214381Y96121D01*
X214666Y96026D01*
X214989Y95969D01*
X215350Y95950D01*
Y94050D01*
X215350D01*
Y94050D01*
X214989Y94031D01*
X214666Y93974D01*
X214381Y93879D01*
X214134Y93746D01*
X213925Y93575D01*
X213754Y93366D01*
X213621Y93119D01*
X213526Y92834D01*
X213469Y92511D01*
X213450Y92150D01*
X213450Y92150D01*
Y92150D01*
X211550Y95000D01*
X213450Y97850D01*
Y97850D01*
X213450Y97850D01*
X213469Y97489D01*
D02*
G37*
G36*
X279374Y156200D02*
X279361Y156324D01*
X279322Y156434D01*
X279256Y156532D01*
X279164Y156616D01*
X279046Y156687D01*
X278902Y156746D01*
X278731Y156791D01*
X278534Y156824D01*
X278311Y156843D01*
X278062Y156850D01*
Y158150D01*
X278311Y158157D01*
X278534Y158176D01*
X278731Y158209D01*
X278902Y158254D01*
X279046Y158312D01*
X279164Y158384D01*
X279256Y158468D01*
X279322Y158566D01*
X279361Y158677D01*
X279374Y158800D01*
Y156200D01*
D02*
G37*
G36*
X85651Y158677D02*
X85690Y158566D01*
X85755Y158468D01*
X85846Y158384D01*
X85963Y158312D01*
X86106Y158254D01*
X86275Y158209D01*
X86470Y158176D01*
X86691Y158157D01*
X86938Y158150D01*
Y156850D01*
X86691Y156843D01*
X86470Y156824D01*
X86275Y156791D01*
X86106Y156746D01*
X85963Y156687D01*
X85846Y156616D01*
X85755Y156532D01*
X85690Y156434D01*
X85651Y156324D01*
X85638Y156200D01*
Y158800D01*
X85651Y158677D01*
D02*
G37*
G36*
X69374Y156200D02*
X69361Y156324D01*
X69322Y156434D01*
X69256Y156532D01*
X69164Y156616D01*
X69046Y156687D01*
X68902Y156746D01*
X68731Y156791D01*
X68534Y156824D01*
X68311Y156843D01*
X68062Y156850D01*
Y158150D01*
X68311Y158157D01*
X68534Y158176D01*
X68731Y158209D01*
X68902Y158254D01*
X69046Y158312D01*
X69164Y158384D01*
X69256Y158468D01*
X69322Y158566D01*
X69361Y158677D01*
X69374Y158800D01*
Y156200D01*
D02*
G37*
G36*
X85651Y168676D02*
X85690Y168566D01*
X85755Y168468D01*
X85846Y168384D01*
X85963Y168313D01*
X86106Y168254D01*
X86275Y168209D01*
X86470Y168176D01*
X86691Y168157D01*
X86938Y168150D01*
Y166850D01*
X86691Y166843D01*
X86470Y166824D01*
X86275Y166791D01*
X86106Y166746D01*
X85963Y166688D01*
X85846Y166616D01*
X85755Y166532D01*
X85690Y166434D01*
X85651Y166323D01*
X85638Y166200D01*
Y168800D01*
X85651Y168676D01*
D02*
G37*
G36*
X238450Y168760D02*
X236550Y165910D01*
X236531Y166271D01*
X236474Y166594D01*
X236379Y166879D01*
X236246Y167126D01*
X236075Y167335D01*
X235866Y167506D01*
X235619Y167639D01*
X235334Y167734D01*
X235011Y167791D01*
X234650Y167810D01*
Y169710D01*
X235011Y169729D01*
X235334Y169786D01*
X235619Y169881D01*
X235866Y170014D01*
X236075Y170185D01*
X236246Y170394D01*
X236379Y170641D01*
X236474Y170926D01*
X236531Y171249D01*
X236550Y171610D01*
X238450Y168760D01*
D02*
G37*
G36*
X115565Y161099D02*
X115528Y160980D01*
Y160842D01*
X115565Y160686D01*
X115638Y160511D01*
X115748Y160318D01*
X115895Y160107D01*
X116079Y159877D01*
X116557Y159362D01*
X115638Y158443D01*
X115371Y158700D01*
X114893Y159105D01*
X114682Y159252D01*
X114489Y159362D01*
X114314Y159435D01*
X114158Y159472D01*
X114020D01*
X113901Y159435D01*
X113800Y159362D01*
X115638Y161200D01*
X115565Y161099D01*
D02*
G37*
G36*
X293676Y154361D02*
X293566Y154322D01*
X293468Y154256D01*
X293384Y154164D01*
X293313Y154046D01*
X293254Y153902D01*
X293209Y153731D01*
X293176Y153534D01*
X293157Y153311D01*
X293150Y153062D01*
X291850D01*
X291844Y153311D01*
X291824Y153534D01*
X291792Y153731D01*
X291746Y153902D01*
X291687Y154046D01*
X291616Y154164D01*
X291531Y154256D01*
X291434Y154322D01*
X291323Y154361D01*
X291200Y154374D01*
X293800D01*
X293676Y154361D01*
D02*
G37*
G36*
X139348Y150450D02*
X139325Y150454D01*
X139264Y150458D01*
X137788Y150472D01*
X137427Y150472D01*
Y151772D01*
X139348Y151794D01*
Y150450D01*
D02*
G37*
G36*
X113677Y149361D02*
X113566Y149321D01*
X113469Y149256D01*
X113384Y149164D01*
X113312Y149046D01*
X113254Y148902D01*
X113208Y148731D01*
X113176Y148534D01*
X113156Y148311D01*
X113150Y148062D01*
X111850D01*
X111844Y148311D01*
X111824Y148534D01*
X111792Y148731D01*
X111746Y148902D01*
X111688Y149046D01*
X111616Y149164D01*
X111531Y149256D01*
X111434Y149321D01*
X111323Y149361D01*
X111200Y149374D01*
X113800D01*
X113677Y149361D01*
D02*
G37*
G36*
X134098Y158053D02*
X133962Y157883D01*
X133842Y157703D01*
X133738Y157514D01*
X133650Y157316D01*
X133578Y157108D01*
X133522Y156892D01*
X133482Y156666D01*
X133458Y156431D01*
X133450Y156187D01*
X131550D01*
X131542Y156431D01*
X131518Y156666D01*
X131478Y156892D01*
X131422Y157108D01*
X131350Y157316D01*
X131262Y157514D01*
X131158Y157703D01*
X131038Y157883D01*
X130902Y158053D01*
X130750Y158215D01*
X134250D01*
X134098Y158053D01*
D02*
G37*
G36*
X141613Y158066D02*
X141478Y157894D01*
X141359Y157713D01*
X141256Y157524D01*
X141168Y157325D01*
X141097Y157117D01*
X141041Y156900D01*
X141001Y156674D01*
X140978Y156440D01*
X140970Y156196D01*
X139070Y156179D01*
X139062Y156424D01*
X139038Y156658D01*
X138997Y156884D01*
X138941Y157100D01*
X138868Y157307D01*
X138780Y157504D01*
X138675Y157693D01*
X138554Y157871D01*
X138417Y158041D01*
X138264Y158201D01*
X141764Y158229D01*
X141613Y158066D01*
D02*
G37*
G36*
X202500Y154110D02*
X201809D01*
X201036Y154008D01*
X200315Y153710D01*
X199696Y153235D01*
X199221Y152616D01*
X198923Y151895D01*
X198821Y151122D01*
X198923Y150349D01*
X199221Y149628D01*
X199283Y149547D01*
X199221Y149467D01*
X198923Y148746D01*
X198821Y147972D01*
X198923Y147199D01*
X199221Y146478D01*
X199283Y146398D01*
X199221Y146317D01*
X198923Y145596D01*
X198821Y144823D01*
X198923Y144049D01*
X199221Y143329D01*
X199283Y143248D01*
X199221Y143167D01*
X198923Y142447D01*
X198821Y141673D01*
X198923Y140900D01*
X199221Y140179D01*
X199283Y140098D01*
X199221Y140018D01*
X198923Y139297D01*
X198821Y138524D01*
X198923Y137750D01*
X199221Y137030D01*
X199283Y136949D01*
X199221Y136868D01*
X198923Y136147D01*
X198821Y135374D01*
X198923Y134601D01*
X199221Y133880D01*
X199283Y133799D01*
X199221Y133719D01*
X198923Y132998D01*
X198821Y132224D01*
X198923Y131451D01*
X199221Y130730D01*
X199283Y130650D01*
X199221Y130569D01*
X198923Y129848D01*
X198821Y129075D01*
X198923Y128301D01*
X199221Y127581D01*
X199283Y127500D01*
X199221Y127419D01*
X198923Y126699D01*
X198821Y125925D01*
X198923Y125152D01*
X199221Y124431D01*
X199283Y124350D01*
X199221Y124270D01*
X198923Y123549D01*
X198821Y122776D01*
X198923Y122002D01*
X199221Y121282D01*
X199283Y121201D01*
X199221Y121120D01*
X198923Y120399D01*
X198821Y119626D01*
X198923Y118853D01*
X199221Y118132D01*
X199283Y118051D01*
X199221Y117971D01*
X198923Y117250D01*
X198821Y116476D01*
X198923Y115703D01*
X199221Y114982D01*
X199283Y114902D01*
X199221Y114821D01*
X198923Y114100D01*
X198821Y113327D01*
X198923Y112553D01*
X199221Y111833D01*
X199283Y111752D01*
X199221Y111671D01*
X198923Y110951D01*
X198821Y110177D01*
X198923Y109404D01*
X199221Y108683D01*
X199283Y108602D01*
X199221Y108522D01*
X198923Y107801D01*
X198821Y107028D01*
X198923Y106254D01*
X199221Y105534D01*
X199283Y105453D01*
X199221Y105372D01*
X198923Y104651D01*
X198821Y103878D01*
X198923Y103105D01*
X199221Y102384D01*
X199696Y101765D01*
X200315Y101290D01*
X201036Y100992D01*
X201809Y100890D01*
X202005D01*
Y95000D01*
X199110D01*
Y98191D01*
X199008Y98964D01*
X198710Y99685D01*
X198235Y100304D01*
X197616Y100779D01*
X196895Y101077D01*
X196122Y101179D01*
X195349Y101077D01*
X194628Y100779D01*
X194547Y100717D01*
X194466Y100779D01*
X193746Y101077D01*
X192972Y101179D01*
X192199Y101077D01*
X191478Y100779D01*
X191398Y100717D01*
X191317Y100779D01*
X190596Y101077D01*
X189823Y101179D01*
X189049Y101077D01*
X188329Y100779D01*
X187710Y100304D01*
X187484Y100010D01*
X187439Y100040D01*
X187173Y100092D01*
Y99536D01*
X186936Y98964D01*
X186835Y98191D01*
Y95020D01*
X186512D01*
Y98191D01*
X186410Y98964D01*
X186173Y99536D01*
Y100092D01*
X185907Y100040D01*
X185862Y100010D01*
X185637Y100304D01*
X185018Y100779D01*
X184297Y101077D01*
X183524Y101179D01*
X182750Y101077D01*
X182029Y100779D01*
X181949Y100717D01*
X181868Y100779D01*
X181147Y101077D01*
X180374Y101179D01*
X179601Y101077D01*
X178880Y100779D01*
X178261Y100304D01*
X178035Y100010D01*
X177990Y100040D01*
X177724Y100092D01*
Y99536D01*
X177488Y98964D01*
X177386Y98191D01*
Y95020D01*
X176724D01*
Y100092D01*
X176459Y100040D01*
X176004Y99736D01*
X175650Y99646D01*
X175295Y99736D01*
X174841Y100040D01*
X174075Y100192D01*
X173901Y100335D01*
Y154665D01*
X174075Y154808D01*
X174841Y154960D01*
X174886Y154990D01*
X175111Y154696D01*
X175730Y154221D01*
X176451Y153923D01*
X177224Y153821D01*
X177998Y153923D01*
X178718Y154221D01*
X178799Y154283D01*
X178880Y154221D01*
X179601Y153923D01*
X180374Y153821D01*
X181147Y153923D01*
X181868Y154221D01*
X181949Y154283D01*
X182029Y154221D01*
X182750Y153923D01*
X183524Y153821D01*
X184297Y153923D01*
X185018Y154221D01*
X185098Y154283D01*
X185179Y154221D01*
X185900Y153923D01*
X186673Y153821D01*
X187447Y153923D01*
X188167Y154221D01*
X188248Y154283D01*
X188329Y154221D01*
X189049Y153923D01*
X189823Y153821D01*
X190596Y153923D01*
X191317Y154221D01*
X191398Y154283D01*
X191478Y154221D01*
X192199Y153923D01*
X192972Y153821D01*
X193746Y153923D01*
X194466Y154221D01*
X194547Y154283D01*
X194628Y154221D01*
X195349Y153923D01*
X196122Y153821D01*
X196895Y153923D01*
X197616Y154221D01*
X198235Y154696D01*
X198710Y155315D01*
X199008Y156036D01*
X199110Y156809D01*
Y160000D01*
X202500D01*
Y154110D01*
D02*
G37*
G36*
X227433Y85319D02*
X227392Y85307D01*
X227339Y85280D01*
X227275Y85238D01*
X227200Y85183D01*
X227014Y85027D01*
X226648Y84684D01*
X226503Y84540D01*
X225584Y85460D01*
X225727Y85605D01*
X226282Y86232D01*
X226323Y86296D01*
X226350Y86348D01*
X226362Y86389D01*
X227433Y85319D01*
D02*
G37*
G36*
X99850Y48303D02*
X99388Y48112D01*
X92962Y54538D01*
X93153Y55000D01*
X99850D01*
Y48303D01*
D02*
G37*
G36*
X106720Y49343D02*
X106558Y49286D01*
X106415Y49191D01*
X106292Y49058D01*
X106187Y48887D01*
X106102Y48678D01*
X106035Y48431D01*
X105988Y48146D01*
X105959Y47823D01*
X105950Y47462D01*
X104050D01*
X104041Y47823D01*
X104012Y48146D01*
X103964Y48431D01*
X103898Y48678D01*
X103813Y48887D01*
X103708Y49058D01*
X103585Y49191D01*
X103442Y49286D01*
X103280Y49343D01*
X103100Y49362D01*
X106900D01*
X106720Y49343D01*
D02*
G37*
G36*
X155950Y48812D02*
X155958Y48568D01*
X155982Y48334D01*
X156022Y48108D01*
X156078Y47892D01*
X156150Y47684D01*
X156238Y47486D01*
X156342Y47297D01*
X156462Y47117D01*
X156598Y46947D01*
X156750Y46785D01*
X153250Y46785D01*
X153402Y46947D01*
X153538Y47117D01*
X153658Y47297D01*
X153762Y47486D01*
X153850Y47684D01*
X153922Y47892D01*
X153978Y48108D01*
X154018Y48334D01*
X154042Y48568D01*
X154050Y48812D01*
X155950Y48812D01*
D02*
G37*
G36*
X292502Y62400D02*
X292228Y62365D01*
X291910Y62261D01*
X291548Y62088D01*
X291142Y61846D01*
X290693Y61535D01*
X289661Y60704D01*
X288453Y59597D01*
X287783Y58940D01*
X286440Y60283D01*
X287097Y60953D01*
X289035Y63193D01*
X289346Y63642D01*
X289588Y64048D01*
X289761Y64410D01*
X289865Y64728D01*
X289900Y65002D01*
X292502Y62400D01*
D02*
G37*
G36*
X205969Y57489D02*
X206026Y57166D01*
X206121Y56881D01*
X206254Y56634D01*
X206425Y56425D01*
X206634Y56254D01*
X206881Y56121D01*
X207166Y56026D01*
X207489Y55969D01*
X207850Y55950D01*
Y54050D01*
X207850D01*
Y54050D01*
X207489Y54031D01*
X207166Y53974D01*
X206881Y53879D01*
X206634Y53746D01*
X206425Y53575D01*
X206254Y53366D01*
X206121Y53119D01*
X206026Y52834D01*
X205969Y52511D01*
X205950Y52150D01*
X205950Y52150D01*
Y52150D01*
X204050Y55000D01*
X205950Y57850D01*
Y57850D01*
X205950Y57850D01*
X205969Y57489D01*
D02*
G37*
G36*
X282502Y59900D02*
X282228Y59865D01*
X281910Y59761D01*
X281548Y59588D01*
X281142Y59346D01*
X280693Y59035D01*
X279661Y58204D01*
X278453Y57097D01*
X277783Y56440D01*
X276440Y57783D01*
X277097Y58453D01*
X279035Y60693D01*
X279346Y61142D01*
X279588Y61548D01*
X279761Y61910D01*
X279865Y62228D01*
X279900Y62502D01*
X282502Y59900D01*
D02*
G37*
G36*
X114925Y40001D02*
X115000Y39983D01*
X112313Y39350D01*
X111335Y41250D01*
X112612Y41760D01*
X114925Y40001D01*
D02*
G37*
G36*
X183469Y29989D02*
X183526Y29666D01*
X183621Y29381D01*
X183754Y29134D01*
X183925Y28925D01*
X184134Y28754D01*
X184381Y28621D01*
X184666Y28526D01*
X184989Y28469D01*
X185350Y28450D01*
X182500Y26550D01*
X179650Y28450D01*
X180011Y28469D01*
X180334Y28526D01*
X180619Y28621D01*
X180866Y28754D01*
X181075Y28925D01*
X181246Y29134D01*
X181379Y29381D01*
X181474Y29666D01*
X181531Y29989D01*
X181550Y30350D01*
X183450D01*
X183469Y29989D01*
D02*
G37*
G36*
X116947Y29098D02*
X117117Y28962D01*
X117297Y28842D01*
X117486Y28738D01*
X117684Y28650D01*
X117892Y28578D01*
X118108Y28522D01*
X118334Y28482D01*
X118569Y28458D01*
X118813Y28450D01*
Y26550D01*
X118569Y26542D01*
X118334Y26518D01*
X118108Y26478D01*
X117892Y26422D01*
X117684Y26350D01*
X117486Y26262D01*
X117297Y26158D01*
X117117Y26038D01*
X116947Y25902D01*
X116785Y25750D01*
Y29250D01*
X116947Y29098D01*
D02*
G37*
G36*
X121671Y50445D02*
X121519Y50146D01*
X121386Y49768D01*
X121270Y49310D01*
X121172Y48772D01*
X121030Y47455D01*
X120959Y45818D01*
X120950Y44880D01*
X119050D01*
X119041Y45818D01*
X118828Y48772D01*
X118730Y49310D01*
X118614Y49768D01*
X118481Y50146D01*
X118329Y50445D01*
X118160Y50663D01*
X121840D01*
X121671Y50445D01*
D02*
G37*
G36*
X154480Y42555D02*
X151579Y42450D01*
X151086Y44350D01*
X151344Y44359D01*
X151576Y44384D01*
X151782Y44427D01*
X151963Y44486D01*
X152118Y44563D01*
X152248Y44657D01*
X152351Y44767D01*
X152429Y44895D01*
X152481Y45040D01*
X152508Y45202D01*
X154480Y42555D01*
D02*
G37*
G36*
X118665Y41250D02*
X117687Y39350D01*
X115000Y39983D01*
X115075Y40001D01*
X117388Y41760D01*
X118665Y41250D01*
D02*
G37*
G36*
X187623Y81643D02*
X185723Y81107D01*
X185715Y81366D01*
X185690Y81598D01*
X185649Y81804D01*
X185591Y81983D01*
X185516Y82136D01*
X185425Y82262D01*
X185317Y82362D01*
X185193Y82435D01*
X185052Y82482D01*
X184895Y82502D01*
X187457Y84539D01*
X187623Y81643D01*
D02*
G37*
G36*
X134698Y81254D02*
X134735Y81042D01*
X134798Y80842D01*
X134884Y80656D01*
X134996Y80484D01*
X135132Y80325D01*
X135293Y80179D01*
X135480Y80047D01*
X135690Y79928D01*
X135926Y79822D01*
X132697Y78472D01*
X132828Y78790D01*
X133214Y79897D01*
X133276Y80133D01*
X133358Y80554D01*
X133379Y80740D01*
X133386Y80909D01*
X134686Y81480D01*
X134698Y81254D01*
D02*
G37*
G36*
X238454Y82489D02*
X238511Y82166D01*
X238606Y81881D01*
X238739Y81634D01*
X238910Y81425D01*
X239119Y81254D01*
X239366Y81121D01*
X239651Y81026D01*
X239974Y80969D01*
X240335Y80950D01*
Y79050D01*
X239974Y79031D01*
X239651Y78974D01*
X239366Y78879D01*
X239119Y78746D01*
X238910Y78575D01*
X238739Y78366D01*
X238606Y78119D01*
X238511Y77834D01*
X238454Y77511D01*
X238435Y77150D01*
X236535Y80000D01*
X238435Y82850D01*
X238454Y82489D01*
D02*
G37*
G36*
X238435Y86260D02*
X236535Y83410D01*
X236516Y83771D01*
X236459Y84094D01*
X236364Y84379D01*
X236231Y84626D01*
X236060Y84835D01*
X235851Y85006D01*
X235604Y85139D01*
X235319Y85234D01*
X234996Y85291D01*
X234635Y85310D01*
Y87210D01*
X234996Y87229D01*
X235319Y87286D01*
X235604Y87381D01*
X235851Y87514D01*
X236060Y87685D01*
X236231Y87894D01*
X236364Y88141D01*
X236459Y88426D01*
X236516Y88749D01*
X236535Y89110D01*
X238435Y86260D01*
D02*
G37*
G36*
X183215Y83250D02*
X183053Y83402D01*
X182883Y83538D01*
X182703Y83658D01*
X182514Y83762D01*
X182316Y83850D01*
X182108Y83922D01*
X181892Y83978D01*
X181666Y84018D01*
X181431Y84042D01*
X181187Y84050D01*
X181187Y85950D01*
X181431Y85958D01*
X181666Y85982D01*
X181892Y86022D01*
X182108Y86078D01*
X182316Y86150D01*
X182514Y86238D01*
X182703Y86342D01*
X182883Y86462D01*
X183053Y86598D01*
X183215Y86750D01*
X183215Y83250D01*
D02*
G37*
G36*
X254975Y82500D02*
X254753Y82494D01*
X254537Y82469D01*
X254325Y82427D01*
X254117Y82367D01*
X253915Y82289D01*
X253718Y82193D01*
X253525Y82080D01*
X253337Y81948D01*
X253154Y81799D01*
X252976Y81632D01*
X251632Y82976D01*
X251799Y83154D01*
X251948Y83337D01*
X252080Y83525D01*
X252193Y83718D01*
X252289Y83915D01*
X252367Y84118D01*
X252427Y84325D01*
X252469Y84537D01*
X252494Y84753D01*
X252500Y84975D01*
X254975Y82500D01*
D02*
G37*
G36*
X105657Y66689D02*
X105676Y66466D01*
X105709Y66269D01*
X105754Y66098D01*
X105813Y65954D01*
X105884Y65836D01*
X105968Y65744D01*
X106066Y65679D01*
X106176Y65639D01*
X106300Y65626D01*
X103700D01*
X103823Y65639D01*
X103934Y65679D01*
X104032Y65744D01*
X104116Y65836D01*
X104188Y65954D01*
X104246Y66098D01*
X104291Y66269D01*
X104324Y66466D01*
X104343Y66689D01*
X104350Y66938D01*
X105650D01*
X105657Y66689D01*
D02*
G37*
G36*
X238435Y66260D02*
X236535Y63710D01*
X236522Y64071D01*
X236483Y64394D01*
X236418Y64679D01*
X236327Y64926D01*
X236210Y65135D01*
X236067Y65306D01*
X235898Y65439D01*
X235703Y65534D01*
X235482Y65591D01*
X235237Y65610D01*
X234892Y65610D01*
Y66910D01*
X235295Y66914D01*
X235482Y66929D01*
X235703Y66986D01*
X235898Y67081D01*
X236067Y67214D01*
X236210Y67385D01*
X236327Y67594D01*
X236418Y67841D01*
X236483Y68126D01*
X236522Y68449D01*
X236535Y68810D01*
X238435Y66260D01*
D02*
G37*
G36*
X153465Y64989D02*
X153512Y64666D01*
X153589Y64381D01*
X153698Y64134D01*
X153838Y63925D01*
X154008Y63754D01*
X154209Y63621D01*
X154442Y63526D01*
X154706Y63469D01*
X155000Y63450D01*
X157850Y61550D01*
X157489Y61531D01*
X157166Y61474D01*
X156881Y61379D01*
X156634Y61246D01*
X156425Y61075D01*
X156254Y60866D01*
X156121Y60619D01*
X156026Y60334D01*
X155969Y60011D01*
X155950Y59650D01*
X154050D01*
X154034Y60011D01*
X153988Y60334D01*
X153911Y60619D01*
X153802Y60866D01*
X153663Y61075D01*
X153492Y61246D01*
X153290Y61379D01*
X153058Y61474D01*
X152795Y61531D01*
X152500Y61550D01*
X150038Y63191D01*
Y61550D01*
X149614Y61541D01*
X149235Y61512D01*
X148900Y61465D01*
X148610Y61398D01*
X148365Y61313D01*
X148164Y61208D01*
X148008Y61085D01*
X147896Y60942D01*
X147829Y60781D01*
X147807Y60600D01*
Y64400D01*
X147829Y64219D01*
X147896Y64058D01*
X148008Y63915D01*
X148164Y63792D01*
X148365Y63687D01*
X148610Y63602D01*
X148900Y63535D01*
X149235Y63488D01*
X149614Y63459D01*
X149766Y63456D01*
X150011Y63469D01*
X150334Y63526D01*
X150619Y63621D01*
X150866Y63754D01*
X151075Y63925D01*
X151246Y64134D01*
X151379Y64381D01*
X151474Y64666D01*
X151531Y64989D01*
X151550Y65350D01*
X153450D01*
X153465Y64989D01*
D02*
G37*
G36*
X154098Y75553D02*
X153962Y75383D01*
X153842Y75203D01*
X153738Y75014D01*
X153650Y74816D01*
X153578Y74608D01*
X153522Y74392D01*
X153482Y74166D01*
X153458Y73931D01*
X153450Y73687D01*
X151550D01*
X151542Y73931D01*
X151518Y74166D01*
X151478Y74392D01*
X151422Y74608D01*
X151350Y74816D01*
X151262Y75014D01*
X151158Y75203D01*
X151038Y75383D01*
X150902Y75553D01*
X150750Y75715D01*
X154250D01*
X154098Y75553D01*
D02*
G37*
G36*
X213469Y77205D02*
X213526Y76942D01*
X213621Y76710D01*
X213754Y76508D01*
X213925Y76337D01*
X214134Y76198D01*
X214381Y76090D01*
X214666Y76012D01*
X214989Y75965D01*
X215350Y75950D01*
Y74050D01*
X214989Y74031D01*
X214666Y73974D01*
X214381Y73879D01*
X214134Y73746D01*
X213925Y73575D01*
X213754Y73366D01*
X213621Y73119D01*
X213526Y72834D01*
X213469Y72511D01*
X213450Y72150D01*
X211550Y75000D01*
X213450Y77500D01*
X213469Y77205D01*
D02*
G37*
G36*
X115653Y66379D02*
X115674Y66082D01*
X115693Y65961D01*
X115717Y65858D01*
X115746Y65775D01*
X115781Y65710D01*
X115821Y65663D01*
X115867Y65635D01*
X115918Y65626D01*
X114083D01*
X114133Y65635D01*
X114179Y65663D01*
X114219Y65710D01*
X114254Y65775D01*
X114283Y65858D01*
X114307Y65961D01*
X114326Y66082D01*
X114339Y66221D01*
X114350Y66556D01*
X115650D01*
X115653Y66379D01*
D02*
G37*
G36*
X103469Y238946D02*
X103526Y238623D01*
X103621Y238338D01*
X103754Y238091D01*
X103925Y237882D01*
X104134Y237711D01*
X104381Y237578D01*
X104666Y237483D01*
X104989Y237426D01*
X105350Y237407D01*
X102500Y235507D01*
X99650Y237407D01*
X100011Y237426D01*
X100334Y237483D01*
X100619Y237578D01*
X100866Y237711D01*
X101075Y237882D01*
X101246Y238091D01*
X101379Y238338D01*
X101474Y238623D01*
X101531Y238946D01*
X101550Y239307D01*
X103450D01*
X103469Y238946D01*
D02*
G37*
G36*
X159719Y233089D02*
X159776Y232766D01*
X159871Y232481D01*
X160004Y232234D01*
X160175Y232025D01*
X160384Y231854D01*
X160631Y231721D01*
X160916Y231626D01*
X161239Y231569D01*
X161600Y231550D01*
X158750Y229650D01*
X155900Y231550D01*
X156261Y231569D01*
X156584Y231626D01*
X156869Y231721D01*
X157116Y231854D01*
X157325Y232025D01*
X157496Y232234D01*
X157629Y232481D01*
X157724Y232766D01*
X157781Y233089D01*
X157800Y233450D01*
X159700D01*
X159719Y233089D01*
D02*
G37*
G36*
X138154Y230701D02*
X138337Y230552D01*
X138525Y230420D01*
X138718Y230307D01*
X138915Y230211D01*
X139118Y230133D01*
X139325Y230073D01*
X139537Y230031D01*
X139753Y230007D01*
X139975Y230000D01*
X137500Y227525D01*
X137494Y227747D01*
X137469Y227963D01*
X137427Y228175D01*
X137367Y228382D01*
X137289Y228585D01*
X137193Y228782D01*
X137080Y228975D01*
X136948Y229163D01*
X136799Y229346D01*
X136632Y229524D01*
X137976Y230868D01*
X138154Y230701D01*
D02*
G37*
G36*
X204930Y248167D02*
X205027Y248007D01*
X205142Y247867D01*
X205278Y247745D01*
X205433Y247641D01*
X205607Y247557D01*
X205801Y247491D01*
X206014Y247444D01*
X206246Y247416D01*
X206498Y247407D01*
X205509Y245507D01*
X205263Y245503D01*
X204575Y245453D01*
X204362Y245424D01*
X203959Y245344D01*
X203770Y245294D01*
X203416Y245174D01*
X204853Y248345D01*
X204930Y248167D01*
D02*
G37*
G36*
X201584Y245174D02*
X201411Y245237D01*
X201041Y245344D01*
X200843Y245387D01*
X200425Y245453D01*
X200203Y245477D01*
X199491Y245507D01*
X198502Y247407D01*
X198754Y247416D01*
X198986Y247444D01*
X199199Y247491D01*
X199393Y247557D01*
X199567Y247641D01*
X199722Y247745D01*
X199857Y247867D01*
X199973Y248007D01*
X200070Y248167D01*
X200147Y248345D01*
X201584Y245174D01*
D02*
G37*
G36*
X113469Y249989D02*
X113526Y249666D01*
X113527Y249663D01*
X114354D01*
X114182Y249642D01*
X114028Y249577D01*
X113893Y249469D01*
X113775Y249317D01*
X113717Y249203D01*
X113754Y249134D01*
X113925Y248925D01*
X114134Y248754D01*
X114381Y248621D01*
X114666Y248526D01*
X114989Y248469D01*
X115350Y248450D01*
Y246550D01*
X114989Y246531D01*
X114666Y246474D01*
X114381Y246379D01*
X114134Y246246D01*
X113925Y246075D01*
X113754Y245866D01*
X113621Y245619D01*
X113526Y245334D01*
X113469Y245011D01*
X113450Y244650D01*
X111550Y247500D01*
X111541Y247911D01*
X111469Y248603D01*
X111405Y248885D01*
X111324Y249123D01*
X111225Y249317D01*
X111107Y249469D01*
X110972Y249577D01*
X110818Y249642D01*
X110646Y249663D01*
X112992Y249663D01*
X113450Y250350D01*
X113469Y249989D01*
D02*
G37*
G36*
X293157Y221689D02*
X293176Y221466D01*
X293209Y221269D01*
X293254Y221098D01*
X293313Y220954D01*
X293384Y220836D01*
X293468Y220744D01*
X293566Y220678D01*
X293676Y220639D01*
X293800Y220626D01*
X291200D01*
X291323Y220639D01*
X291434Y220678D01*
X291531Y220744D01*
X291616Y220836D01*
X291687Y220954D01*
X291746Y221098D01*
X291792Y221269D01*
X291824Y221466D01*
X291844Y221689D01*
X291850Y221938D01*
X293150D01*
X293157Y221689D01*
D02*
G37*
G36*
X279374Y216200D02*
X279361Y216323D01*
X279322Y216434D01*
X279256Y216531D01*
X279164Y216616D01*
X279046Y216687D01*
X278902Y216746D01*
X278731Y216792D01*
X278534Y216824D01*
X278311Y216844D01*
X278062Y216850D01*
Y218150D01*
X278311Y218157D01*
X278534Y218176D01*
X278731Y218209D01*
X278902Y218254D01*
X279046Y218313D01*
X279164Y218384D01*
X279256Y218468D01*
X279322Y218566D01*
X279361Y218676D01*
X279374Y218800D01*
Y216200D01*
D02*
G37*
G36*
X85639Y218676D02*
X85678Y218566D01*
X85744Y218468D01*
X85836Y218384D01*
X85954Y218313D01*
X86098Y218254D01*
X86269Y218209D01*
X86466Y218176D01*
X86689Y218157D01*
X86938Y218150D01*
Y216850D01*
X86689Y216844D01*
X86466Y216824D01*
X86269Y216792D01*
X86098Y216746D01*
X85954Y216687D01*
X85836Y216616D01*
X85744Y216531D01*
X85678Y216434D01*
X85639Y216323D01*
X85626Y216200D01*
Y218800D01*
X85639Y218676D01*
D02*
G37*
G36*
X130654Y230701D02*
X130837Y230552D01*
X131025Y230420D01*
X131218Y230307D01*
X131415Y230211D01*
X131617Y230133D01*
X131825Y230073D01*
X132037Y230031D01*
X132253Y230007D01*
X132475Y230000D01*
X130000Y227525D01*
X129993Y227747D01*
X129969Y227963D01*
X129927Y228175D01*
X129867Y228382D01*
X129789Y228585D01*
X129693Y228782D01*
X129580Y228975D01*
X129448Y229163D01*
X129299Y229346D01*
X129132Y229524D01*
X130476Y230868D01*
X130654Y230701D01*
D02*
G37*
G36*
X149447Y229098D02*
X149617Y228962D01*
X149797Y228842D01*
X149986Y228738D01*
X150184Y228650D01*
X150391Y228578D01*
X150608Y228522D01*
X150834Y228482D01*
X151068Y228458D01*
X151312Y228450D01*
Y226550D01*
X151068Y226542D01*
X150834Y226518D01*
X150608Y226478D01*
X150391Y226422D01*
X150184Y226350D01*
X149986Y226262D01*
X149797Y226158D01*
X149617Y226038D01*
X149447Y225902D01*
X149285Y225750D01*
Y229250D01*
X149447Y229098D01*
D02*
G37*
G36*
X171875Y227500D02*
X169975Y224650D01*
X169956Y225011D01*
X169899Y225334D01*
X169804Y225619D01*
X169671Y225866D01*
X169500Y226075D01*
X169291Y226246D01*
X169044Y226379D01*
X168759Y226474D01*
X168436Y226531D01*
X168075Y226550D01*
Y228450D01*
X168436Y228469D01*
X168759Y228526D01*
X169044Y228621D01*
X169291Y228754D01*
X169500Y228925D01*
X169671Y229134D01*
X169804Y229381D01*
X169899Y229666D01*
X169956Y229989D01*
X169975Y230350D01*
X171875Y227500D01*
D02*
G37*
G36*
X145350Y259050D02*
X145350D01*
X145350Y259050D01*
X144989Y259031D01*
X144666Y258974D01*
X144381Y258879D01*
X144134Y258746D01*
X143925Y258575D01*
X143754Y258366D01*
X143621Y258119D01*
X143526Y257834D01*
X143469Y257511D01*
X143457Y257279D01*
X143459Y257175D01*
X143488Y256850D01*
X143535Y256563D01*
X143602Y256314D01*
X143687Y256104D01*
X143792Y255932D01*
X143915Y255798D01*
X144058Y255702D01*
X144220Y255645D01*
X144400Y255626D01*
X140600D01*
X140780Y255645D01*
X140942Y255702D01*
X141085Y255798D01*
X141208Y255932D01*
X141313Y256104D01*
X141398Y256314D01*
X141464Y256563D01*
X141512Y256850D01*
X141541Y257175D01*
X141543Y257279D01*
X141531Y257511D01*
X141474Y257834D01*
X141379Y258119D01*
X141246Y258366D01*
X141075Y258575D01*
X140866Y258746D01*
X140619Y258879D01*
X140334Y258974D01*
X140011Y259031D01*
X139650Y259050D01*
X139650Y259050D01*
X139650D01*
X142500Y260950D01*
X144400D01*
X145350Y259050D01*
D02*
G37*
G36*
X223459Y254612D02*
X223535Y253896D01*
X223601Y253605D01*
X223685Y253358D01*
X223789Y253157D01*
X223911Y253000D01*
X224053Y252888D01*
X224213Y252821D01*
X224392Y252799D01*
X220608D01*
X220787Y252821D01*
X220947Y252888D01*
X221089Y253000D01*
X221211Y253157D01*
X221315Y253358D01*
X221399Y253605D01*
X221465Y253896D01*
X221512Y254232D01*
X221541Y254612D01*
X221550Y255038D01*
X223450D01*
X223459Y254612D01*
D02*
G37*
G36*
X157507Y254753D02*
X157531Y254537D01*
X157573Y254325D01*
X157633Y254117D01*
X157711Y253915D01*
X157807Y253718D01*
X157920Y253525D01*
X158052Y253337D01*
X158201Y253154D01*
X158368Y252976D01*
X157024Y251632D01*
X156846Y251799D01*
X156663Y251948D01*
X156475Y252080D01*
X156282Y252193D01*
X156085Y252289D01*
X155883Y252367D01*
X155675Y252427D01*
X155463Y252469D01*
X155247Y252494D01*
X155025Y252500D01*
X157500Y254975D01*
X157507Y254753D01*
D02*
G37*
G36*
X182850Y259050D02*
X182489Y259031D01*
X182166Y258974D01*
X181881Y258879D01*
X181634Y258746D01*
X181425Y258575D01*
X181254Y258366D01*
X181121Y258119D01*
X181026Y257834D01*
X180969Y257511D01*
X180950Y257150D01*
X179050D01*
X179031Y257511D01*
X178974Y257834D01*
X178879Y258119D01*
X178746Y258366D01*
X178575Y258575D01*
X178366Y258746D01*
X178119Y258879D01*
X177834Y258974D01*
X177511Y259031D01*
X177150Y259050D01*
X180000Y260950D01*
X182850Y259050D01*
D02*
G37*
G36*
X173775D02*
X173414Y259031D01*
X173091Y258974D01*
X172806Y258879D01*
X172559Y258746D01*
X172350Y258575D01*
X172179Y258366D01*
X172046Y258119D01*
X171951Y257834D01*
X171894Y257511D01*
X171875Y257150D01*
X169975D01*
X169956Y257511D01*
X169899Y257834D01*
X169804Y258119D01*
X169671Y258366D01*
X169500Y258575D01*
X169291Y258746D01*
X169044Y258879D01*
X168759Y258974D01*
X168436Y259031D01*
X168075Y259050D01*
X170925Y260950D01*
X173775Y259050D01*
D02*
G37*
G36*
X197850D02*
X197850D01*
X197850Y259050D01*
X197489Y259031D01*
X197166Y258974D01*
X196881Y258879D01*
X196634Y258746D01*
X196425Y258575D01*
X196254Y258366D01*
X196121Y258119D01*
X196026Y257834D01*
X195969Y257511D01*
X195950Y257150D01*
X194050D01*
Y257150D01*
X194050D01*
X194031Y257511D01*
X193974Y257834D01*
X193879Y258119D01*
X193746Y258366D01*
X193575Y258575D01*
X193366Y258746D01*
X193119Y258879D01*
X192834Y258974D01*
X192511Y259031D01*
X192150Y259050D01*
X192150Y259050D01*
X192150D01*
X195000Y260950D01*
X197850Y259050D01*
D02*
G37*
G36*
X134213Y249679D02*
X134053Y249612D01*
X133911Y249500D01*
X133789Y249343D01*
X133685Y249142D01*
X133601Y248895D01*
X133535Y248604D01*
X133488Y248268D01*
X133459Y247887D01*
X133450Y247462D01*
X131550D01*
X131541Y247887D01*
X131465Y248604D01*
X131399Y248895D01*
X131315Y249142D01*
X131211Y249343D01*
X131089Y249500D01*
X130947Y249612D01*
X130787Y249679D01*
X130608Y249701D01*
X134391Y249701D01*
X134213Y249679D01*
D02*
G37*
G36*
X104219Y249343D02*
X104058Y249286D01*
X103916Y249191D01*
X103792Y249058D01*
X103688Y248887D01*
X103602Y248678D01*
X103535Y248431D01*
X103488Y248146D01*
X103460Y247823D01*
X103450Y247462D01*
X101550D01*
X101541Y247823D01*
X101512Y248146D01*
X101464Y248431D01*
X101398Y248678D01*
X101312Y248887D01*
X101208Y249058D01*
X101084Y249191D01*
X100942Y249286D01*
X100780Y249343D01*
X100600Y249362D01*
X104400D01*
X104219Y249343D01*
D02*
G37*
G36*
X189098Y250553D02*
X188962Y250383D01*
X188842Y250203D01*
X188738Y250014D01*
X188650Y249816D01*
X188578Y249608D01*
X188522Y249392D01*
X188482Y249166D01*
X188466Y249008D01*
X188469Y248946D01*
X188526Y248623D01*
X188621Y248338D01*
X188754Y248091D01*
X188925Y247882D01*
X189134Y247711D01*
X189381Y247578D01*
X189666Y247483D01*
X189989Y247426D01*
X190350Y247407D01*
X190350Y247407D01*
X190350D01*
X187500Y245507D01*
X184650Y247407D01*
X184650D01*
X184650Y247407D01*
X185011Y247426D01*
X185334Y247483D01*
X185619Y247578D01*
X185866Y247711D01*
X186075Y247882D01*
X186246Y248091D01*
X186379Y248338D01*
X186474Y248623D01*
X186531Y248946D01*
X186534Y249007D01*
X186518Y249166D01*
X186478Y249392D01*
X186422Y249608D01*
X186350Y249816D01*
X186262Y250014D01*
X186158Y250203D01*
X186038Y250383D01*
X185902Y250553D01*
X185750Y250715D01*
X189250D01*
X189098Y250553D01*
D02*
G37*
G36*
X124098Y253053D02*
X123962Y252883D01*
X123842Y252703D01*
X123738Y252514D01*
X123650Y252316D01*
X123578Y252109D01*
X123522Y251892D01*
X123482Y251666D01*
X123458Y251431D01*
X123450Y251187D01*
X121550D01*
X121542Y251431D01*
X121518Y251666D01*
X121478Y251892D01*
X121422Y252109D01*
X121350Y252316D01*
X121262Y252514D01*
X121158Y252703D01*
X121038Y252883D01*
X120902Y253053D01*
X120750Y253215D01*
X124250D01*
X124098Y253053D01*
D02*
G37*
G36*
X166598Y250553D02*
X166462Y250383D01*
X166342Y250203D01*
X166238Y250014D01*
X166150Y249816D01*
X166078Y249608D01*
X166022Y249392D01*
X165982Y249166D01*
X165958Y248932D01*
X165950Y248688D01*
X164050Y248688D01*
X164042Y248932D01*
X164018Y249166D01*
X163978Y249392D01*
X163922Y249608D01*
X163850Y249816D01*
X163762Y250014D01*
X163658Y250203D01*
X163538Y250383D01*
X163402Y250553D01*
X163250Y250715D01*
X166750Y250715D01*
X166598Y250553D01*
D02*
G37*
G36*
X144220Y249343D02*
X144058Y249286D01*
X143915Y249191D01*
X143792Y249058D01*
X143687Y248887D01*
X143602Y248678D01*
X143535Y248431D01*
X143488Y248146D01*
X143459Y247823D01*
X143450Y247462D01*
X141550D01*
X141541Y247823D01*
X141512Y248146D01*
X141464Y248431D01*
X141398Y248678D01*
X141313Y248887D01*
X141208Y249058D01*
X141085Y249191D01*
X140942Y249286D01*
X140780Y249343D01*
X140600Y249362D01*
X144400D01*
X144220Y249343D01*
D02*
G37*
G36*
X69374Y216200D02*
X69361Y216323D01*
X69322Y216434D01*
X69256Y216531D01*
X69164Y216616D01*
X69046Y216687D01*
X68902Y216746D01*
X68731Y216792D01*
X68534Y216824D01*
X68311Y216844D01*
X68062Y216850D01*
Y218150D01*
X68311Y218157D01*
X68534Y218176D01*
X68731Y218209D01*
X68902Y218254D01*
X69046Y218313D01*
X69164Y218384D01*
X69256Y218468D01*
X69322Y218566D01*
X69361Y218676D01*
X69374Y218800D01*
Y216200D01*
D02*
G37*
G36*
X279374Y186200D02*
X279361Y186323D01*
X279322Y186434D01*
X279256Y186531D01*
X279164Y186616D01*
X279046Y186688D01*
X278902Y186746D01*
X278731Y186792D01*
X278534Y186824D01*
X278311Y186844D01*
X278062Y186850D01*
Y188150D01*
X278311Y188156D01*
X278534Y188176D01*
X278731Y188208D01*
X278902Y188254D01*
X279046Y188312D01*
X279164Y188384D01*
X279256Y188469D01*
X279322Y188566D01*
X279361Y188677D01*
X279374Y188800D01*
Y186200D01*
D02*
G37*
G36*
X85651Y188677D02*
X85690Y188566D01*
X85755Y188469D01*
X85846Y188384D01*
X85963Y188312D01*
X86106Y188254D01*
X86275Y188208D01*
X86470Y188176D01*
X86691Y188156D01*
X86938Y188150D01*
Y186850D01*
X86691Y186844D01*
X86470Y186824D01*
X86275Y186792D01*
X86106Y186746D01*
X85963Y186688D01*
X85846Y186616D01*
X85755Y186531D01*
X85690Y186434D01*
X85651Y186323D01*
X85638Y186200D01*
Y188800D01*
X85651Y188677D01*
D02*
G37*
G36*
X238450Y186260D02*
X236550Y183410D01*
X236531Y183771D01*
X236474Y184094D01*
X236379Y184379D01*
X236246Y184626D01*
X236075Y184835D01*
X235866Y185006D01*
X235619Y185139D01*
X235334Y185234D01*
X235011Y185291D01*
X234650Y185310D01*
Y187210D01*
X235011Y187229D01*
X235334Y187286D01*
X235619Y187381D01*
X235866Y187514D01*
X236075Y187685D01*
X236246Y187894D01*
X236379Y188141D01*
X236474Y188426D01*
X236531Y188749D01*
X236550Y189110D01*
X238450Y186260D01*
D02*
G37*
G36*
X85651Y198677D02*
X85690Y198566D01*
X85755Y198468D01*
X85846Y198384D01*
X85963Y198312D01*
X86106Y198254D01*
X86275Y198208D01*
X86470Y198176D01*
X86691Y198156D01*
X86938Y198150D01*
Y196850D01*
X86691Y196844D01*
X86470Y196824D01*
X86275Y196792D01*
X86106Y196746D01*
X85963Y196687D01*
X85846Y196616D01*
X85755Y196531D01*
X85690Y196434D01*
X85651Y196324D01*
X85638Y196200D01*
Y198800D01*
X85651Y198677D01*
D02*
G37*
G36*
X147575Y194999D02*
X145112Y193240D01*
X143835Y193750D01*
X144813Y195650D01*
X147575Y194999D01*
D02*
G37*
G36*
X295651Y188677D02*
X295690Y188566D01*
X295755Y188469D01*
X295846Y188384D01*
X295963Y188312D01*
X296106Y188254D01*
X296275Y188208D01*
X296470Y188176D01*
X296691Y188156D01*
X296938Y188150D01*
Y186850D01*
X296691Y186844D01*
X296470Y186824D01*
X296275Y186792D01*
X296106Y186746D01*
X295963Y186688D01*
X295846Y186616D01*
X295755Y186531D01*
X295690Y186434D01*
X295651Y186323D01*
X295638Y186200D01*
Y188800D01*
X295651Y188677D01*
D02*
G37*
G36*
X85651Y178676D02*
X85690Y178566D01*
X85755Y178469D01*
X85846Y178384D01*
X85963Y178313D01*
X86106Y178254D01*
X86275Y178208D01*
X86470Y178176D01*
X86691Y178156D01*
X86938Y178150D01*
Y176850D01*
X86691Y176844D01*
X86470Y176824D01*
X86275Y176792D01*
X86106Y176746D01*
X85963Y176688D01*
X85846Y176616D01*
X85755Y176532D01*
X85690Y176434D01*
X85651Y176323D01*
X85638Y176200D01*
Y178800D01*
X85651Y178676D01*
D02*
G37*
G36*
X106947Y174098D02*
X107117Y173962D01*
X107297Y173842D01*
X107486Y173738D01*
X107684Y173650D01*
X107891Y173578D01*
X108108Y173522D01*
X108334Y173482D01*
X108569Y173458D01*
X108812Y173450D01*
Y171550D01*
X108569Y171542D01*
X108334Y171518D01*
X108108Y171478D01*
X107891Y171422D01*
X107684Y171350D01*
X107486Y171262D01*
X107297Y171158D01*
X107117Y171038D01*
X106947Y170902D01*
X106785Y170750D01*
Y174250D01*
X106947Y174098D01*
D02*
G37*
G36*
X279374Y166200D02*
X279361Y166323D01*
X279322Y166434D01*
X279256Y166532D01*
X279164Y166616D01*
X279046Y166688D01*
X278902Y166746D01*
X278731Y166791D01*
X278534Y166824D01*
X278311Y166843D01*
X278062Y166850D01*
Y168150D01*
X278311Y168157D01*
X278534Y168176D01*
X278731Y168209D01*
X278902Y168254D01*
X279046Y168313D01*
X279164Y168384D01*
X279256Y168468D01*
X279322Y168566D01*
X279361Y168676D01*
X279374Y168800D01*
Y166200D01*
D02*
G37*
G36*
X129206Y184203D02*
X129245Y183982D01*
X129310Y183787D01*
X129401Y183618D01*
X129518Y183475D01*
X129661Y183358D01*
X129830Y183267D01*
X130025Y183202D01*
X130246Y183163D01*
X130493Y183150D01*
Y181850D01*
X130246Y181837D01*
X130025Y181798D01*
X129830Y181733D01*
X129661Y181642D01*
X129518Y181525D01*
X129401Y181382D01*
X129310Y181213D01*
X129245Y181018D01*
X129206Y180797D01*
X129193Y180550D01*
X127893Y182500D01*
X129193Y184450D01*
X129206Y184203D01*
D02*
G37*
G36*
X295651Y178676D02*
X295690Y178566D01*
X295755Y178469D01*
X295846Y178384D01*
X295963Y178313D01*
X296106Y178254D01*
X296275Y178208D01*
X296470Y178176D01*
X296691Y178156D01*
X296938Y178150D01*
Y176850D01*
X296691Y176844D01*
X296470Y176824D01*
X296275Y176792D01*
X296106Y176746D01*
X295963Y176688D01*
X295846Y176616D01*
X295755Y176532D01*
X295690Y176434D01*
X295651Y176323D01*
X295638Y176200D01*
Y178800D01*
X295651Y178676D01*
D02*
G37*
G36*
X279374Y176200D02*
X279361Y176323D01*
X279322Y176434D01*
X279256Y176532D01*
X279164Y176616D01*
X279046Y176688D01*
X278902Y176746D01*
X278731Y176792D01*
X278534Y176824D01*
X278311Y176844D01*
X278062Y176850D01*
Y178150D01*
X278311Y178156D01*
X278534Y178176D01*
X278731Y178208D01*
X278902Y178254D01*
X279046Y178313D01*
X279164Y178384D01*
X279256Y178469D01*
X279322Y178566D01*
X279361Y178676D01*
X279374Y178800D01*
Y176200D01*
D02*
G37*
G36*
X205350Y215295D02*
X204989Y215276D01*
X204666Y215218D01*
X204381Y215124D01*
X204134Y214990D01*
X203925Y214820D01*
X203807Y214675D01*
X203856Y214617D01*
X203952Y214535D01*
X203713D01*
X203621Y214364D01*
X203526Y214078D01*
X203469Y213755D01*
X203450Y213394D01*
X201550D01*
X201531Y213755D01*
X201474Y214078D01*
X201379Y214364D01*
X201287Y214535D01*
X201048D01*
X201144Y214617D01*
X201193Y214675D01*
X201075Y214820D01*
X200866Y214990D01*
X200619Y215124D01*
X200334Y215218D01*
X200011Y215276D01*
X199650Y215295D01*
X202500Y217195D01*
X205350Y215295D01*
D02*
G37*
G36*
X108469Y218734D02*
X108526Y218410D01*
X108621Y218126D01*
X108754Y217879D01*
X108925Y217670D01*
X109134Y217498D01*
X109381Y217366D01*
X109666Y217270D01*
X109989Y217214D01*
X110350Y217195D01*
Y215295D01*
X109989Y215276D01*
X109666Y215218D01*
X109381Y215124D01*
X109134Y214990D01*
X108925Y214820D01*
X108754Y214611D01*
X108621Y214364D01*
X108526Y214078D01*
X108469Y213755D01*
X108450Y213394D01*
X106550Y216245D01*
X108450Y219094D01*
X108469Y218734D01*
D02*
G37*
G36*
X295651Y208677D02*
X295690Y208566D01*
X295755Y208469D01*
X295846Y208384D01*
X295963Y208313D01*
X296106Y208254D01*
X296275Y208208D01*
X296470Y208176D01*
X296691Y208156D01*
X296938Y208150D01*
Y206850D01*
X296691Y206843D01*
X296470Y206824D01*
X296275Y206791D01*
X296106Y206746D01*
X295963Y206687D01*
X295846Y206616D01*
X295755Y206532D01*
X295690Y206434D01*
X295651Y206324D01*
X295638Y206200D01*
Y208800D01*
X295651Y208677D01*
D02*
G37*
G36*
X196947Y217843D02*
X197117Y217706D01*
X197297Y217586D01*
X197486Y217482D01*
X197684Y217394D01*
X197891Y217322D01*
X198108Y217267D01*
X198334Y217227D01*
X198568Y217202D01*
X198812Y217195D01*
X198812Y215295D01*
X198568Y215286D01*
X198334Y215263D01*
X198108Y215223D01*
X197891Y215166D01*
X197684Y215094D01*
X197486Y215006D01*
X197297Y214902D01*
X197117Y214783D01*
X196947Y214647D01*
X196785Y214494D01*
X196785Y217994D01*
X196947Y217843D01*
D02*
G37*
G36*
X153215Y214494D02*
X153053Y214647D01*
X152883Y214783D01*
X152703Y214902D01*
X152514Y215006D01*
X152316Y215094D01*
X152109Y215166D01*
X151892Y215223D01*
X151666Y215263D01*
X151432Y215286D01*
X151188Y215295D01*
Y217195D01*
X151432Y217202D01*
X151666Y217227D01*
X151892Y217267D01*
X152109Y217322D01*
X152316Y217394D01*
X152514Y217482D01*
X152703Y217586D01*
X152883Y217706D01*
X153053Y217843D01*
X153215Y217994D01*
Y214494D01*
D02*
G37*
G36*
X238450Y216245D02*
X236550Y213394D01*
X236531Y213755D01*
X236474Y214078D01*
X236379Y214364D01*
X236246Y214611D01*
X236075Y214820D01*
X235866Y214990D01*
X235619Y215124D01*
X235334Y215218D01*
X235011Y215276D01*
X234650Y215295D01*
Y217195D01*
X235011Y217214D01*
X235334Y217270D01*
X235619Y217366D01*
X235866Y217498D01*
X236075Y217670D01*
X236246Y217879D01*
X236379Y218126D01*
X236474Y218410D01*
X236531Y218734D01*
X236550Y219094D01*
X238450Y216245D01*
D02*
G37*
G36*
Y203760D02*
X236550Y200910D01*
X236531Y201271D01*
X236474Y201594D01*
X236379Y201879D01*
X236246Y202126D01*
X236075Y202335D01*
X235866Y202506D01*
X235619Y202639D01*
X235334Y202734D01*
X235011Y202791D01*
X234650Y202810D01*
Y204710D01*
X235011Y204729D01*
X235334Y204786D01*
X235619Y204881D01*
X235866Y205014D01*
X236075Y205185D01*
X236246Y205394D01*
X236379Y205641D01*
X236474Y205926D01*
X236531Y206249D01*
X236550Y206610D01*
X238450Y203760D01*
D02*
G37*
G36*
X295651Y198677D02*
X295690Y198566D01*
X295755Y198468D01*
X295846Y198384D01*
X295963Y198312D01*
X296106Y198254D01*
X296275Y198208D01*
X296470Y198176D01*
X296691Y198156D01*
X296938Y198150D01*
Y196850D01*
X296691Y196844D01*
X296470Y196824D01*
X296275Y196792D01*
X296106Y196746D01*
X295963Y196687D01*
X295846Y196616D01*
X295755Y196531D01*
X295690Y196434D01*
X295651Y196324D01*
X295638Y196200D01*
Y198800D01*
X295651Y198677D01*
D02*
G37*
G36*
X279374Y196200D02*
X279361Y196324D01*
X279322Y196434D01*
X279256Y196531D01*
X279164Y196616D01*
X279046Y196687D01*
X278902Y196746D01*
X278731Y196792D01*
X278534Y196824D01*
X278311Y196844D01*
X278062Y196850D01*
Y198150D01*
X278311Y198156D01*
X278534Y198176D01*
X278731Y198208D01*
X278902Y198254D01*
X279046Y198312D01*
X279164Y198384D01*
X279256Y198468D01*
X279322Y198566D01*
X279361Y198677D01*
X279374Y198800D01*
Y196200D01*
D02*
G37*
G36*
Y206200D02*
X279361Y206324D01*
X279322Y206434D01*
X279256Y206532D01*
X279164Y206616D01*
X279046Y206687D01*
X278902Y206746D01*
X278731Y206791D01*
X278534Y206824D01*
X278311Y206843D01*
X278062Y206850D01*
Y208150D01*
X278311Y208156D01*
X278534Y208176D01*
X278731Y208208D01*
X278902Y208254D01*
X279046Y208313D01*
X279164Y208384D01*
X279256Y208469D01*
X279322Y208566D01*
X279361Y208677D01*
X279374Y208800D01*
Y206200D01*
D02*
G37*
G36*
X85651Y208677D02*
X85690Y208566D01*
X85755Y208469D01*
X85846Y208384D01*
X85963Y208313D01*
X86106Y208254D01*
X86275Y208208D01*
X86470Y208176D01*
X86691Y208156D01*
X86938Y208150D01*
Y206850D01*
X86691Y206843D01*
X86470Y206824D01*
X86275Y206791D01*
X86106Y206746D01*
X85963Y206687D01*
X85846Y206616D01*
X85755Y206532D01*
X85690Y206434D01*
X85651Y206324D01*
X85638Y206200D01*
Y208800D01*
X85651Y208677D01*
D02*
G37*
G36*
X69374Y206200D02*
X69361Y206324D01*
X69322Y206434D01*
X69256Y206532D01*
X69164Y206616D01*
X69046Y206687D01*
X68902Y206746D01*
X68731Y206791D01*
X68534Y206824D01*
X68311Y206843D01*
X68062Y206850D01*
Y208150D01*
X68311Y208156D01*
X68534Y208176D01*
X68731Y208208D01*
X68902Y208254D01*
X69046Y208313D01*
X69164Y208384D01*
X69256Y208469D01*
X69322Y208566D01*
X69361Y208677D01*
X69374Y208800D01*
Y206200D01*
D02*
G37*
D10*
X142500Y243543D02*
D03*
Y236457D02*
D03*
X132500Y236457D02*
D03*
Y243543D02*
D03*
X152500Y243543D02*
D03*
Y236457D02*
D03*
X165000Y243543D02*
D03*
Y236457D02*
D03*
X195000Y253543D02*
D03*
Y246457D02*
D03*
X180000Y253543D02*
D03*
Y246457D02*
D03*
X112500Y236457D02*
D03*
Y243543D02*
D03*
X92500Y243543D02*
D03*
Y236457D02*
D03*
X120000Y229232D02*
D03*
Y220768D02*
D03*
Y211732D02*
D03*
Y203268D02*
D03*
X117500Y99232D02*
D03*
Y90768D02*
D03*
Y84232D02*
D03*
Y75768D02*
D03*
X162500Y50768D02*
D03*
Y59232D02*
D03*
X155000Y58543D02*
D03*
Y51457D02*
D03*
X225000Y150768D02*
D03*
Y159232D02*
D03*
Y168268D02*
D03*
Y176732D02*
D03*
Y185768D02*
D03*
Y194232D02*
D03*
Y203268D02*
D03*
Y211732D02*
D03*
Y220768D02*
D03*
Y229232D02*
D03*
D11*
X103071Y225000D02*
D03*
X111929Y228740D02*
D03*
Y221260D02*
D03*
X103071Y207500D02*
D03*
X111929Y211240D02*
D03*
Y203760D02*
D03*
X114429Y178760D02*
D03*
Y186240D02*
D03*
X105571Y182500D02*
D03*
X109429Y126260D02*
D03*
Y133740D02*
D03*
X100571Y130000D02*
D03*
X109429Y108760D02*
D03*
Y116240D02*
D03*
X100571Y112500D02*
D03*
Y95000D02*
D03*
X109429Y98740D02*
D03*
Y91260D02*
D03*
X100571Y80000D02*
D03*
X109429Y83740D02*
D03*
Y76260D02*
D03*
X233071Y53740D02*
D03*
Y46260D02*
D03*
X241929Y50000D02*
D03*
X233071Y73740D02*
D03*
Y66260D02*
D03*
X241929Y70000D02*
D03*
X233071Y93740D02*
D03*
Y86260D02*
D03*
X241929Y90000D02*
D03*
Y110000D02*
D03*
X233071Y106260D02*
D03*
Y113740D02*
D03*
X241929Y155000D02*
D03*
X233071Y151260D02*
D03*
Y158740D02*
D03*
X241929Y172500D02*
D03*
X233071Y168760D02*
D03*
Y176240D02*
D03*
X241929Y190000D02*
D03*
X233071Y186260D02*
D03*
Y193740D02*
D03*
X241929Y207500D02*
D03*
X233071Y203760D02*
D03*
Y211240D02*
D03*
X241929Y225000D02*
D03*
X233071Y221260D02*
D03*
Y228740D02*
D03*
Y133740D02*
D03*
Y126260D02*
D03*
X241929Y130000D02*
D03*
D12*
X128543Y177500D02*
D03*
X121457D02*
D03*
X128543Y187500D02*
D03*
X121457D02*
D03*
X123543Y110000D02*
D03*
X116457D02*
D03*
X123543Y117500D02*
D03*
X116457D02*
D03*
X123543Y125000D02*
D03*
X116457D02*
D03*
X123543Y135000D02*
D03*
X116457D02*
D03*
X188543Y32500D02*
D03*
X181457D02*
D03*
X218957Y95000D02*
D03*
X226043D02*
D03*
X218957Y85000D02*
D03*
X226043D02*
D03*
X218957Y75000D02*
D03*
X226043D02*
D03*
X218957Y65000D02*
D03*
X226043D02*
D03*
X218957Y55000D02*
D03*
X226043D02*
D03*
X218957Y45000D02*
D03*
X226043D02*
D03*
X218957Y105000D02*
D03*
X226043D02*
D03*
X218957Y115000D02*
D03*
X226043D02*
D03*
X218957Y135000D02*
D03*
X226043D02*
D03*
X218957Y125000D02*
D03*
X226043D02*
D03*
X168957Y85000D02*
D03*
X176043D02*
D03*
X291043Y107500D02*
D03*
X283957D02*
D03*
D13*
X140020Y103878D02*
D03*
Y107028D02*
D03*
Y110177D02*
D03*
Y113327D02*
D03*
Y116476D02*
D03*
Y119626D02*
D03*
Y122776D02*
D03*
Y125925D02*
D03*
Y129075D02*
D03*
Y132224D02*
D03*
Y135374D02*
D03*
Y138524D02*
D03*
Y141673D02*
D03*
Y144823D02*
D03*
Y147972D02*
D03*
Y151122D02*
D03*
X204980D02*
D03*
Y147972D02*
D03*
Y144823D02*
D03*
Y141673D02*
D03*
Y138524D02*
D03*
Y135374D02*
D03*
Y132224D02*
D03*
Y129075D02*
D03*
Y125925D02*
D03*
Y122776D02*
D03*
Y119626D02*
D03*
Y116476D02*
D03*
Y113327D02*
D03*
Y110177D02*
D03*
Y107028D02*
D03*
Y103878D02*
D03*
D14*
X148878Y159980D02*
D03*
X152028D02*
D03*
X155177D02*
D03*
X158327D02*
D03*
X161476D02*
D03*
X164626D02*
D03*
X167776D02*
D03*
X170925D02*
D03*
X174075D02*
D03*
X177224D02*
D03*
X180374D02*
D03*
X183524D02*
D03*
X186673D02*
D03*
X189823D02*
D03*
X192972D02*
D03*
X196122D02*
D03*
Y95020D02*
D03*
X192972D02*
D03*
X189823D02*
D03*
X186673D02*
D03*
X183524D02*
D03*
X180374D02*
D03*
X177224D02*
D03*
X174075D02*
D03*
X170925D02*
D03*
X167776D02*
D03*
X164626D02*
D03*
X161476D02*
D03*
X158327D02*
D03*
X155177D02*
D03*
X152028D02*
D03*
X148878D02*
D03*
D15*
X190543Y60000D02*
D03*
X179457D02*
D03*
X293043Y95000D02*
D03*
X281957D02*
D03*
D16*
X180000Y240300D02*
X222800D01*
X177224Y237524D02*
X180000Y240300D01*
X177224Y159980D02*
Y237524D01*
X229700Y237200D02*
X242500Y250000D01*
X180374Y159980D02*
Y232874D01*
X184700Y237200D01*
X229700D01*
X188744Y233745D02*
X236245D01*
X183524Y159980D02*
Y228524D01*
X188744Y233745D01*
X236245D02*
X252500Y250000D01*
X222800Y240300D02*
X232500Y250000D01*
X242500Y247800D02*
Y250000D01*
X158750Y230600D02*
Y251250D01*
X155000Y255000D02*
X158750Y251250D01*
Y230600D02*
X165000D01*
X152500D02*
X158750D01*
X122500Y247500D02*
Y255000D01*
X152500Y230600D02*
Y236457D01*
X165000Y236457D02*
X165000Y236457D01*
X165000Y230600D02*
Y236457D01*
X152500Y230600D02*
X152500Y230600D01*
X165000Y252500D02*
X165000Y252500D01*
Y243543D02*
Y252500D01*
X112500Y247500D02*
Y255000D01*
Y247500D02*
X122500D01*
X132500Y150000D02*
Y160000D01*
Y150000D02*
X134528Y147972D01*
X140020D01*
X102500Y236457D02*
X121457D01*
X112500Y236457D02*
X123543D01*
X132500Y227500D01*
X132500Y235000D02*
X140000Y227500D01*
X132500Y235000D02*
Y236457D01*
X140000Y160000D02*
X140020Y159980D01*
Y151122D02*
Y159980D01*
X112500Y243543D02*
Y247500D01*
X170925Y260000D02*
X180000D01*
X142500D02*
X170925D01*
X92500Y243543D02*
Y260000D01*
X92500Y260000D01*
X142500D01*
X112500Y255000D02*
X112500Y255000D01*
X102500Y236457D02*
Y255000D01*
X92500Y236457D02*
X102500D01*
X187500Y246457D02*
X195000D01*
X180000D02*
X187500D01*
X187500Y246457D02*
X187500Y246457D01*
X187500Y246457D02*
Y252500D01*
X142500Y255000D02*
Y260000D01*
X167500Y110000D02*
X167776Y109724D01*
Y95020D02*
Y109724D01*
X176043Y85000D02*
X186673D01*
Y95020D01*
Y35827D02*
Y85000D01*
X105000Y90000D02*
Y97500D01*
Y83740D02*
Y90000D01*
X97500D02*
X105000D01*
X95000Y87500D02*
X97500Y90000D01*
X95000Y85000D02*
Y87500D01*
X115000Y27500D02*
X182500D01*
X107500Y40300D02*
X162500D01*
X182500Y27500D02*
X255000D01*
X120000Y43400D02*
X155000D01*
X155000Y43400D02*
Y51457D01*
X155000Y43400D02*
X155000Y43400D01*
X174075Y95020D02*
Y159980D01*
X170925Y95020D02*
Y159980D01*
X105000Y172500D02*
X110000D01*
Y185000D01*
X111240Y186240D01*
X114429D01*
X202500Y216245D02*
X237500D01*
X195000D02*
X202500D01*
Y212500D02*
Y216245D01*
X195000Y216245D02*
X195000Y216245D01*
X223268Y222500D02*
X225000Y220768D01*
X190000Y222500D02*
X223268D01*
X186673Y219173D02*
X190000Y222500D01*
X107500Y211240D02*
Y227500D01*
Y216245D02*
X155000D01*
X142500Y255000D02*
Y260000D01*
Y243543D02*
Y255000D01*
X170925Y227500D02*
Y260000D01*
Y159980D02*
Y227500D01*
X147500D02*
X170925D01*
X122500Y194700D02*
X147500D01*
Y192500D02*
Y194700D01*
X121457Y193657D02*
X122500Y194700D01*
X121457Y187500D02*
Y193657D01*
X202500Y246457D02*
X208957D01*
X195000D02*
X202500D01*
Y247500D01*
X237500Y203760D02*
Y220000D01*
X182500Y27500D02*
Y77500D01*
X162500Y40300D02*
Y50768D01*
X237485Y80000D02*
Y86260D01*
Y66260D02*
Y80000D01*
X250000D02*
X255000Y85000D01*
X237485Y80000D02*
X250000D01*
X120000Y43400D02*
Y52500D01*
X105000Y42800D02*
X107500Y40300D01*
X105000Y42800D02*
Y52500D01*
X255000Y27500D02*
X292500Y65000D01*
X208957Y246457D02*
X212500Y250000D01*
X174075Y159980D02*
Y244075D01*
X176457Y246457D02*
X180000D01*
X174075Y244075D02*
X176457Y246457D01*
X180000Y260000D02*
X195000D01*
X180000Y253543D02*
Y260000D01*
X123543Y110000D02*
Y117500D01*
X109429Y108760D02*
X115217D01*
X116457Y110000D01*
X105000Y83740D02*
X109429D01*
X105000Y97500D02*
X106240Y98740D01*
X109429D01*
X107500Y211240D02*
X111929D01*
X107500Y227500D02*
X108740Y228740D01*
X111929D01*
X119508Y221260D02*
X120000Y220768D01*
X111929Y221260D02*
X119508D01*
Y203760D02*
X120000Y203268D01*
X111929Y203760D02*
X119508D01*
X120197Y186240D02*
X121457Y187500D01*
X114429Y186240D02*
X120197D01*
X120197Y178760D02*
X121457Y177500D01*
X114429Y178760D02*
X120197D01*
X115197Y133740D02*
X116457Y135000D01*
X109429Y133740D02*
X115197D01*
X115197Y126260D02*
X116457Y125000D01*
X109429Y126260D02*
X115197D01*
X115197Y116240D02*
X116457Y117500D01*
X109429Y116240D02*
X115197D01*
X117008Y76260D02*
X117500Y75768D01*
X109429Y76260D02*
X117008D01*
Y91260D02*
X117500Y90768D01*
X109429Y91260D02*
X117008D01*
X222500Y250000D02*
Y260000D01*
X195000Y253543D02*
Y260000D01*
X195000Y260000D02*
X222500D01*
X132500Y243543D02*
Y252500D01*
X105000Y133740D02*
X109429D01*
X106260Y116240D02*
X109429D01*
X105000Y117500D02*
X106260Y116240D01*
X105000Y117500D02*
Y142500D01*
X227303Y86260D02*
X233071D01*
X225000Y229232D02*
X232480D01*
X232972Y228740D01*
X186673Y159980D02*
Y219173D01*
X189823Y159980D02*
Y202323D01*
X190768Y203268D02*
X225000D01*
X189823Y202323D02*
X190768Y203268D01*
X192972Y159980D02*
Y182972D01*
X195768Y185768D02*
X225000D01*
X192972Y182972D02*
X195768Y185768D01*
X196122Y159980D02*
Y166890D01*
X197500Y168268D01*
X225000D01*
X204980Y151122D02*
X224646D01*
X204980Y141673D02*
X212283D01*
X218957Y135000D01*
Y125000D02*
Y135000D01*
X204980Y119626D02*
X214331D01*
X218957Y115000D01*
Y105000D02*
Y115000D01*
X204980Y107028D02*
X210472D01*
X212500Y105000D01*
Y85000D02*
X212500Y85000D01*
X218957D01*
X212500Y95000D02*
X218957D01*
X212500Y95000D02*
X212500Y95000D01*
X212500Y85000D02*
Y95000D01*
Y105000D01*
X204980Y85020D02*
Y103878D01*
Y85020D02*
X212500Y77500D01*
Y65000D02*
X212500Y65000D01*
X218957D01*
X212500Y65000D02*
Y75000D01*
Y77500D01*
Y75000D02*
X218957D01*
X196122Y88878D02*
Y95020D01*
X205000Y45000D02*
X218957D01*
X218957Y45000D01*
X196122Y88878D02*
X205000Y80000D01*
Y45000D02*
Y55000D01*
Y80000D01*
X205000Y55000D02*
X218957D01*
X205000Y55000D02*
X205000Y55000D01*
X227303Y53740D02*
X233071D01*
X226043Y55000D02*
X227303Y53740D01*
X226043Y45000D02*
X227303Y46260D01*
X233071D01*
X236260D01*
X237485Y47485D01*
X237397Y95987D02*
X237485Y95899D01*
Y47485D02*
Y66260D01*
Y86260D02*
Y95899D01*
X233071Y86260D02*
X237485D01*
X226043Y105000D02*
X227303Y106260D01*
X226043Y115000D02*
X227303Y113740D01*
X232972D01*
X226043Y125000D02*
X227303Y126260D01*
X233071D01*
X227303Y133740D02*
X233071D01*
X226043Y135000D02*
X227303Y133740D01*
X231811Y75000D02*
X233071Y73740D01*
X226043Y75000D02*
X231811D01*
X227303Y93740D02*
X233071D01*
X226043Y95000D02*
X227303Y93740D01*
X233071Y151260D02*
X237422D01*
X237500Y151181D01*
X225492Y158740D02*
X233071D01*
X225000Y159232D02*
X225492Y158740D01*
X233071Y168760D02*
X237500D01*
Y151181D02*
Y168760D01*
X225492Y176240D02*
X233071D01*
X225000Y176732D02*
X225492Y176240D01*
X225000Y194232D02*
X225492Y193740D01*
X233071D01*
Y186260D02*
X237500D01*
Y168760D02*
Y186260D01*
X233071Y203760D02*
X237500D01*
Y186260D02*
Y203760D01*
X225492Y211240D02*
X233071D01*
X225000Y211732D02*
X225492Y211240D01*
X233071Y221260D02*
X236240D01*
X237500Y220000D01*
X233071Y126260D02*
X236043D01*
X227303Y106260D02*
X233071D01*
X237397D01*
Y102500D02*
X237485Y102587D01*
Y124819D01*
X237397Y95987D02*
Y102500D01*
Y106260D01*
X236043Y126260D02*
X237485Y124819D01*
X167776Y86181D02*
Y95020D01*
Y86181D02*
X168957Y85000D01*
X170925Y90925D02*
Y95020D01*
X168957Y88957D02*
X170925Y90925D01*
X168957Y85000D02*
Y88957D01*
X175650Y95020D02*
X176043Y94626D01*
Y85000D02*
Y94626D01*
X174075Y95020D02*
X175650D01*
X152500Y62500D02*
Y77500D01*
X145000Y62500D02*
X152500D01*
X162116D02*
X162500Y62116D01*
Y59232D02*
Y62116D01*
X155000Y58543D02*
Y62500D01*
X152500D02*
X155000D01*
X162116D01*
X168957Y78543D02*
Y85000D01*
Y78543D02*
X170000Y77500D01*
X182500D01*
X186673Y35827D02*
X190000Y32500D01*
X252500D01*
X282500Y62500D01*
X302500Y107500D02*
X302500Y107500D01*
X291043Y95000D02*
X291043Y95000D01*
D17*
X105000Y37500D02*
X167500D01*
X102500Y35000D02*
X170000D01*
X100000Y32500D02*
X172500D01*
X82500Y60000D02*
X105000Y37500D01*
X72500Y65000D02*
X102500Y35000D01*
X65000Y67500D02*
X100000Y32500D01*
Y167500D02*
Y192500D01*
X155177Y159980D02*
Y167500D01*
X100000D02*
X155177D01*
X112500Y141673D02*
X140020D01*
X112500D02*
Y152500D01*
X117500Y144823D02*
X140020D01*
X117500D02*
Y157500D01*
X112500Y162500D02*
X117500Y157500D01*
X167500Y160256D02*
Y222500D01*
X127500D02*
X167500D01*
X127500D02*
Y227500D01*
X72500Y65000D02*
Y75000D01*
Y70000D02*
Y147500D01*
X65000Y67500D02*
Y87500D01*
Y82500D02*
Y157500D01*
X270000Y70000D02*
Y167500D01*
X241929Y50000D02*
X250000D01*
X270000Y70000D01*
X272500Y65000D02*
Y157500D01*
X202500Y40000D02*
X247500D01*
X272500Y65000D01*
X275000Y152500D02*
X292500D01*
X275000Y62500D02*
Y152500D01*
X292500D02*
Y157500D01*
X167500Y37500D02*
Y67500D01*
X170000Y35000D02*
Y70000D01*
X172500Y32500D02*
Y72500D01*
X125000Y117500D02*
X133425Y125925D01*
X140020D01*
X123543Y117500D02*
X125000D01*
X130255Y87756D02*
Y110256D01*
X133327Y113327D01*
X140020D01*
X131476Y116476D02*
X140020D01*
X127755Y112756D02*
X131476Y116476D01*
X127755Y100256D02*
Y112756D01*
X117500Y99232D02*
X126732D01*
X127755Y100256D01*
X135472Y107028D02*
X140020D01*
X134036Y78464D02*
Y105591D01*
X135472Y107028D01*
X134036Y78464D02*
X135000Y77500D01*
X126732Y84232D02*
X130255Y87756D01*
X125768Y229232D02*
X127500Y227500D01*
X120000Y229232D02*
X125768D01*
X292500Y217500D02*
Y225000D01*
Y207500D02*
X300000D01*
X292500Y197500D02*
X302500D01*
X292500Y187500D02*
X305000D01*
X300000Y207500D02*
Y222500D01*
X295000Y227500D02*
X300000Y222500D01*
X252500Y227500D02*
X295000D01*
X302500Y197500D02*
Y223535D01*
X296036Y230000D02*
X302500Y223535D01*
X305000Y187500D02*
Y224571D01*
X297071Y232500D02*
X305000Y224571D01*
X298107Y235000D02*
X307500Y225607D01*
Y177500D02*
Y225607D01*
X292500Y177500D02*
X307500D01*
X242106Y225000D02*
Y234606D01*
X242500Y235000D01*
X242106D02*
X298107D01*
X242106Y207500D02*
X247303D01*
X247500Y207697D01*
Y232500D01*
X297071D01*
X242106Y190000D02*
X250000D01*
Y230000D01*
X296036D01*
X242106Y172500D02*
X252500D01*
Y227500D01*
X242106Y155000D02*
X255000D01*
Y225000D01*
X292500D01*
X257500Y217500D02*
X282500D01*
X260000Y207500D02*
X282500D01*
X262500Y197500D02*
X282500D01*
X265000Y187500D02*
X282500D01*
X267500Y177500D02*
X282500D01*
X270000Y167500D02*
X282500D01*
X272500Y157500D02*
X282500D01*
X100394Y227500D02*
X102894Y225000D01*
X62500Y207500D02*
X72500D01*
X65000Y217500D02*
X72500D01*
X97500Y207500D02*
X102894D01*
X82500Y217500D02*
X95000D01*
Y197500D02*
Y217500D01*
X82500Y207500D02*
X92500D01*
Y195000D02*
Y207500D01*
X82500Y197500D02*
X90000D01*
Y192500D02*
Y197500D01*
X195000Y260000D02*
X195000Y260000D01*
X257500Y142500D02*
Y217500D01*
X224646Y151122D02*
X225000Y150768D01*
X204980Y144823D02*
X220177D01*
X222500Y142500D01*
X257500D01*
X218957Y55000D02*
X218957Y55000D01*
X167500Y160256D02*
X167776Y159980D01*
X123543Y125000D02*
Y135000D01*
X140020Y109840D02*
Y110177D01*
X144356Y109840D02*
X146003Y108193D01*
Y101065D02*
Y108193D01*
X145000Y100062D02*
X146003Y101065D01*
X140020Y109840D02*
X144356D01*
X82500Y157500D02*
X90000D01*
X82500Y167500D02*
X92500D01*
X82500Y177500D02*
X95000D01*
X82500Y187500D02*
X97500D01*
Y130000D02*
Y187500D01*
Y130000D02*
X100571D01*
X90000Y192500D02*
X100000D01*
X105571Y182500D02*
Y194429D01*
X105000Y195000D02*
X105571Y194429D01*
X92500Y195000D02*
X105000D01*
X161476Y159980D02*
Y196024D01*
X160000Y197500D02*
X161476Y196024D01*
X95000Y197500D02*
X160000D01*
X164626Y159980D02*
Y210374D01*
X163268Y211732D02*
X164626Y210374D01*
X120000Y211732D02*
X163268D01*
X158327Y159980D02*
Y181673D01*
X157500Y182500D02*
X158327Y181673D01*
X128543Y182500D02*
X157500D01*
X128543Y177500D02*
Y182500D01*
Y187500D01*
X95000Y112500D02*
Y177500D01*
Y112500D02*
X100571D01*
X92500Y95000D02*
Y167500D01*
Y95000D02*
X100394D01*
X90000Y80000D02*
Y157500D01*
Y80000D02*
X100394D01*
X127067Y138524D02*
X140020D01*
X123543Y135000D02*
X127067Y138524D01*
X117500Y84232D02*
X126732D01*
X140000Y87480D02*
X140020Y87500D01*
Y103878D01*
X139056Y71556D02*
X140000Y72500D01*
Y87480D01*
X144055Y69055D02*
X145000Y70000D01*
Y100062D01*
X82500Y60000D02*
Y147500D01*
X65000Y157500D02*
X72500D01*
X132500Y243543D02*
X133148D01*
X140234Y236457D01*
X142500D01*
X151852Y243543D02*
X152500D01*
X136378Y151122D02*
X140020D01*
X65000Y217500D02*
Y225000D01*
X97500D01*
Y207500D02*
Y225000D01*
X62500Y207500D02*
Y227500D01*
X100394D01*
X192972Y87028D02*
Y95020D01*
Y87028D02*
X199980Y80020D01*
Y42520D02*
Y80020D01*
X189823Y85177D02*
Y95020D01*
Y85177D02*
X197480Y77520D01*
Y40020D02*
Y77520D01*
X117500Y69055D02*
X144055D01*
X115000Y62500D02*
Y66556D01*
X117500Y69055D01*
X106555Y71556D02*
X139056D01*
X105000Y70000D02*
X106555Y71556D01*
X105000Y62500D02*
Y70000D01*
X226043Y85000D02*
X227303Y86260D01*
X226043Y65000D02*
X227303Y66260D01*
X233071D01*
X142500Y236457D02*
X144766D01*
X151852Y243543D01*
X233071Y66260D02*
X237485D01*
X158327Y67500D02*
Y95020D01*
X161476Y71024D02*
Y95020D01*
Y71024D02*
X162500Y70000D01*
X158327Y67500D02*
X167500D01*
X164626Y72500D02*
Y95020D01*
Y72500D02*
X172500D01*
X162500Y70000D02*
X170000D01*
X199980Y42520D02*
X202500Y40000D01*
X197480Y40020D02*
X200000Y37500D01*
X252500Y130000D02*
X260000Y137500D01*
X241929Y130000D02*
X252500D01*
X260000Y137500D02*
Y207500D01*
X247500Y110000D02*
X262500Y125000D01*
Y197500D01*
X241929Y110000D02*
X247500D01*
X250000Y90000D02*
X265000Y105000D01*
X241929Y90000D02*
X250000D01*
X265000Y105000D02*
Y187500D01*
X252500Y70000D02*
X267500Y85000D01*
X241929Y70000D02*
X252500D01*
X267500Y85000D02*
Y177500D01*
X250000Y37500D02*
X275000Y62500D01*
X200000Y37500D02*
X250000D01*
D18*
X292500Y65000D02*
Y95000D01*
X120000Y52500D02*
X125000D01*
X115000D02*
X120000D01*
X282500Y62500D02*
Y120000D01*
X292500Y95000D02*
X302500D01*
X282500Y130000D02*
Y147500D01*
X292500Y120000D02*
Y147500D01*
X291043Y107500D02*
X302500D01*
X302500Y107500D02*
Y130000D01*
X282500Y120000D02*
X292500D01*
X302500Y95000D02*
Y107500D01*
D19*
X55000Y150000D02*
Y153999D01*
X53001D01*
X52334Y153332D01*
Y151999D01*
X53001Y151333D01*
X55000D01*
X53667D02*
X52334Y150000D01*
X55000Y163999D02*
X52334D01*
X53667D01*
Y160000D01*
D20*
X132500Y252500D02*
D03*
X112500D02*
D03*
X135000Y52500D02*
D03*
X145000Y62500D02*
D03*
X135000D02*
D03*
X125000D02*
D03*
X125000Y52500D02*
D03*
X115000Y62500D02*
D03*
X145000Y52500D02*
D03*
X115000D02*
D03*
X222500Y250000D02*
D03*
X232500D02*
D03*
X242500D02*
D03*
X262500D02*
D03*
X252500D02*
D03*
D21*
X142500Y252500D02*
D03*
X102500D02*
D03*
X105000Y62500D02*
D03*
Y52500D02*
D03*
X212500Y250000D02*
D03*
D22*
X72500Y147500D02*
D03*
X82500D02*
D03*
X72500Y157500D02*
D03*
X82500D02*
D03*
Y177500D02*
D03*
Y187500D02*
D03*
Y197500D02*
D03*
X72500Y187500D02*
D03*
Y167500D02*
D03*
Y197500D02*
D03*
X82500Y167500D02*
D03*
Y207500D02*
D03*
X72500Y177500D02*
D03*
Y207500D02*
D03*
X112500Y152500D02*
D03*
X282500Y147500D02*
D03*
X292500D02*
D03*
X282500Y157500D02*
D03*
X292500D02*
D03*
Y177500D02*
D03*
Y187500D02*
D03*
Y197500D02*
D03*
X282500Y187500D02*
D03*
Y167500D02*
D03*
Y197500D02*
D03*
X292500Y167500D02*
D03*
Y207500D02*
D03*
X282500Y177500D02*
D03*
Y207500D02*
D03*
D23*
X82500Y217500D02*
D03*
X72500D02*
D03*
X112500Y162500D02*
D03*
X292500Y217500D02*
D03*
X282500D02*
D03*
D24*
X155000Y255000D02*
D03*
X122500D02*
D03*
X165000Y252500D02*
D03*
X132500Y160000D02*
D03*
Y227500D02*
D03*
X140000D02*
D03*
Y160000D02*
D03*
X187500Y252500D02*
D03*
X185000Y85000D02*
D03*
X95000D02*
D03*
X115000Y27500D02*
D03*
Y42500D02*
D03*
X190000Y45000D02*
D03*
X155000D02*
D03*
X105000Y142500D02*
D03*
Y172500D02*
D03*
X195000Y216245D02*
D03*
X155000Y216245D02*
D03*
X147500Y227500D02*
D03*
Y192500D02*
D03*
X202500Y247500D02*
D03*
Y212500D02*
D03*
X292500Y85000D02*
D03*
X255000D02*
D03*
X135000Y77500D02*
D03*
X152500D02*
D03*
X302500Y130000D02*
D03*
X282500D02*
D03*
M02*
