G04 Layer_Color=32768*
%FSLAX25Y25*%
%MOIN*%
G70*
G01*
G75*
%ADD30C,0.01000*%
%ADD31C,0.00984*%
%ADD32C,0.00787*%
D30*
X187776Y223799D02*
G03*
X197224Y223799I4724J-6299D01*
G01*
X165276D02*
G03*
X174724Y223799I4724J-6299D01*
G01*
X142776Y216299D02*
G03*
X152224Y216299I4724J-6299D01*
G01*
X125276Y203799D02*
G03*
X134724Y203799I4724J-6299D01*
G01*
X284469Y98811D02*
G03*
X284469Y98811I-5000J0D01*
G01*
X245098Y59441D02*
G03*
X245098Y59441I-5000J0D01*
G01*
X186043Y39756D02*
G03*
X186043Y39756I-5000J0D01*
G01*
X126988Y59441D02*
G03*
X126988Y59441I-5000J0D01*
G01*
X87618Y98811D02*
G03*
X87618Y98811I-5000J0D01*
G01*
X196102Y112913D02*
G03*
X205551Y112913I4724J-6299D01*
G01*
X156732D02*
G03*
X166181Y112913I4724J-6299D01*
G01*
X227598Y203465D02*
G03*
X237047Y203465I4724J-6299D01*
G01*
X209882Y215276D02*
G03*
X219331Y215276I4724J-6299D01*
G01*
X176417Y203465D02*
G03*
X185866Y203465I4724J-6299D01*
G01*
X187776Y223799D02*
X197224D01*
X165276D02*
X174724D01*
X142776Y216299D02*
X152224D01*
X125276Y203799D02*
X134724D01*
X156142Y135000D02*
X166142D01*
X137835Y125000D02*
X224449D01*
X137835Y175000D02*
X223642D01*
X166142Y125000D02*
Y135000D01*
X137835Y125000D02*
Y175000D01*
X224449Y125000D02*
Y175000D01*
X268468Y111311D02*
X289469D01*
X268468Y84811D02*
X289469D01*
Y92811D02*
Y102811D01*
X268468Y93311D02*
Y102311D01*
X229098Y71941D02*
X250098D01*
X229098Y45441D02*
X250098D01*
Y53441D02*
Y63441D01*
X229098Y53941D02*
Y62941D01*
X170043Y52256D02*
X191043D01*
X170043Y25756D02*
X191043D01*
Y33756D02*
Y43756D01*
X170043Y34256D02*
Y43256D01*
X110988Y71941D02*
X131988D01*
X110988Y45441D02*
X131988D01*
Y53441D02*
Y63441D01*
X110988Y53941D02*
Y62941D01*
X71618Y111311D02*
X92618D01*
X71618Y84811D02*
X92618D01*
Y92811D02*
Y102811D01*
X71618Y93311D02*
Y102311D01*
X196102Y112913D02*
X205551D01*
X156732D02*
X166181D01*
X227598Y203465D02*
X237047D01*
X209882Y215276D02*
X219331D01*
X176417Y203465D02*
X185866D01*
X77500Y142500D02*
X87500D01*
X67500Y212500D02*
X77500D01*
X67500Y142500D02*
X77500D01*
X67500Y222500D02*
X77500D01*
X87500D01*
X77500Y212500D02*
X87500D01*
X67500Y142500D02*
Y222500D01*
X87500Y142500D02*
Y222500D01*
X287500Y142500D02*
X297500D01*
X277500Y212500D02*
X287500D01*
X277500Y142500D02*
X287500D01*
X277500Y222500D02*
X287500D01*
X297500D01*
X287500Y212500D02*
X297500D01*
X277500Y142500D02*
Y222500D01*
X297500Y142500D02*
Y222500D01*
X208300Y129400D02*
Y135398D01*
X211299D01*
X212299Y134398D01*
Y132399D01*
X211299Y131399D01*
X208300D01*
X210299D02*
X212299Y129400D01*
X214298D02*
X216298D01*
X215298D01*
Y135398D01*
X214298Y134398D01*
X219297Y130400D02*
X220296Y129400D01*
X222295D01*
X223295Y130400D01*
Y134398D01*
X222295Y135398D01*
X220296D01*
X219297Y134398D01*
Y133399D01*
X220296Y132399D01*
X223295D01*
X158300Y194400D02*
Y200398D01*
X161299D01*
X162299Y199398D01*
Y197399D01*
X161299Y196399D01*
X158300D01*
X160299D02*
X162299Y194400D01*
X168297D02*
X164298D01*
X168297Y198399D01*
Y199398D01*
X167297Y200398D01*
X165298D01*
X164298Y199398D01*
X174295Y200398D02*
X172295Y199398D01*
X170296Y197399D01*
Y195400D01*
X171296Y194400D01*
X173295D01*
X174295Y195400D01*
Y196399D01*
X173295Y197399D01*
X170296D01*
X143300Y194400D02*
Y200398D01*
X146299D01*
X147299Y199398D01*
Y197399D01*
X146299Y196399D01*
X143300D01*
X145299D02*
X147299Y194400D01*
X153297D02*
X149298D01*
X153297Y198399D01*
Y199398D01*
X152297Y200398D01*
X150298D01*
X149298Y199398D01*
X159295Y200398D02*
X155296D01*
Y197399D01*
X157296Y198399D01*
X158295D01*
X159295Y197399D01*
Y195400D01*
X158295Y194400D01*
X156296D01*
X155296Y195400D01*
X143300Y201900D02*
Y207898D01*
X146299D01*
X147299Y206898D01*
Y204899D01*
X146299Y203899D01*
X143300D01*
X145299D02*
X147299Y201900D01*
X153297D02*
X149298D01*
X153297Y205899D01*
Y206898D01*
X152297Y207898D01*
X150298D01*
X149298Y206898D01*
X158295Y201900D02*
Y207898D01*
X155296Y204899D01*
X159295D01*
X158300Y201900D02*
Y207898D01*
X161299D01*
X162299Y206898D01*
Y204899D01*
X161299Y203899D01*
X158300D01*
X160299D02*
X162299Y201900D01*
X168297D02*
X164298D01*
X168297Y205899D01*
Y206898D01*
X167297Y207898D01*
X165298D01*
X164298Y206898D01*
X170296D02*
X171296Y207898D01*
X173295D01*
X174295Y206898D01*
Y205899D01*
X173295Y204899D01*
X172295D01*
X173295D01*
X174295Y203899D01*
Y202900D01*
X173295Y201900D01*
X171296D01*
X170296Y202900D01*
X190800Y201900D02*
Y207898D01*
X193799D01*
X194799Y206898D01*
Y204899D01*
X193799Y203899D01*
X190800D01*
X192799D02*
X194799Y201900D01*
X200797D02*
X196798D01*
X200797Y205899D01*
Y206898D01*
X199797Y207898D01*
X197798D01*
X196798Y206898D01*
X206795Y201900D02*
X202796D01*
X206795Y205899D01*
Y206898D01*
X205795Y207898D01*
X203796D01*
X202796Y206898D01*
X190000Y190998D02*
Y185000D01*
X193999D01*
X199997Y190998D02*
X195998D01*
Y185000D01*
X199997D01*
X195998Y187999D02*
X197997D01*
X201996Y190998D02*
Y185000D01*
X204995D01*
X205995Y186000D01*
Y189998D01*
X204995Y190998D01*
X201996D01*
X207994Y186000D02*
X208994Y185000D01*
X210993D01*
X211993Y186000D01*
Y189998D01*
X210993Y190998D01*
X208994D01*
X207994Y189998D01*
Y188999D01*
X208994Y187999D01*
X211993D01*
X122650Y215048D02*
Y209050D01*
X126649D01*
X132647Y215048D02*
X128648D01*
Y209050D01*
X132647D01*
X128648Y212049D02*
X130647D01*
X134646Y215048D02*
Y209050D01*
X137645D01*
X138645Y210050D01*
Y214048D01*
X137645Y215048D01*
X134646D01*
X140644Y214048D02*
X141644Y215048D01*
X143643D01*
X144643Y214048D01*
Y213049D01*
X143643Y212049D01*
X144643Y211049D01*
Y210050D01*
X143643Y209050D01*
X141644D01*
X140644Y210050D01*
Y211049D01*
X141644Y212049D01*
X140644Y213049D01*
Y214048D01*
X141644Y212049D02*
X143643D01*
X140150Y227548D02*
Y221550D01*
X144149D01*
X150147Y227548D02*
X146148D01*
Y221550D01*
X150147D01*
X146148Y224549D02*
X148147D01*
X152146Y227548D02*
Y221550D01*
X155145D01*
X156145Y222550D01*
Y226548D01*
X155145Y227548D01*
X152146D01*
X158144D02*
X162143D01*
Y226548D01*
X158144Y222550D01*
Y221550D01*
X162650Y235048D02*
Y229050D01*
X166649D01*
X172647Y235048D02*
X168648D01*
Y229050D01*
X172647D01*
X168648Y232049D02*
X170647D01*
X174646Y235048D02*
Y229050D01*
X177645D01*
X178645Y230050D01*
Y234048D01*
X177645Y235048D01*
X174646D01*
X184643D02*
X182643Y234048D01*
X180644Y232049D01*
Y230050D01*
X181644Y229050D01*
X183643D01*
X184643Y230050D01*
Y231049D01*
X183643Y232049D01*
X180644D01*
X185150Y235048D02*
Y229050D01*
X189149D01*
X195147Y235048D02*
X191148D01*
Y229050D01*
X195147D01*
X191148Y232049D02*
X193147D01*
X197146Y235048D02*
Y229050D01*
X200145D01*
X201145Y230050D01*
Y234048D01*
X200145Y235048D01*
X197146D01*
X207143D02*
X203144D01*
Y232049D01*
X205143Y233049D01*
X206143D01*
X207143Y232049D01*
Y230050D01*
X206143Y229050D01*
X204144D01*
X203144Y230050D01*
X125800Y129400D02*
Y135398D01*
X128799D01*
X129799Y134398D01*
Y132399D01*
X128799Y131399D01*
X125800D01*
X127799D02*
X129799Y129400D01*
X135797D02*
X131798D01*
X135797Y133399D01*
Y134398D01*
X134797Y135398D01*
X132798D01*
X131798Y134398D01*
X137796Y129400D02*
X139795D01*
X138796D01*
Y135398D01*
X137796Y134398D01*
X125800Y144400D02*
Y150398D01*
X128799D01*
X129799Y149398D01*
Y147399D01*
X128799Y146399D01*
X125800D01*
X127799D02*
X129799Y144400D01*
X135797D02*
X131798D01*
X135797Y148399D01*
Y149398D01*
X134797Y150398D01*
X132798D01*
X131798Y149398D01*
X137796D02*
X138796Y150398D01*
X140795D01*
X141795Y149398D01*
Y145400D01*
X140795Y144400D01*
X138796D01*
X137796Y145400D01*
Y149398D01*
X185800Y151900D02*
Y157898D01*
X188799D01*
X189799Y156898D01*
Y154899D01*
X188799Y153899D01*
X185800D01*
X187799D02*
X189799Y151900D01*
X191798D02*
X193798D01*
X192798D01*
Y157898D01*
X191798Y156898D01*
X196797D02*
X197796Y157898D01*
X199795D01*
X200795Y156898D01*
Y155899D01*
X199795Y154899D01*
X200795Y153899D01*
Y152900D01*
X199795Y151900D01*
X197796D01*
X196797Y152900D01*
Y153899D01*
X197796Y154899D01*
X196797Y155899D01*
Y156898D01*
X197796Y154899D02*
X199795D01*
X208300Y141900D02*
Y147898D01*
X211299D01*
X212299Y146898D01*
Y144899D01*
X211299Y143899D01*
X208300D01*
X210299D02*
X212299Y141900D01*
X214298D02*
X216298D01*
X215298D01*
Y147898D01*
X214298Y146898D01*
X219297Y147898D02*
X223295D01*
Y146898D01*
X219297Y142900D01*
Y141900D01*
X175800Y109400D02*
Y115398D01*
X178799D01*
X179799Y114398D01*
Y112399D01*
X178799Y111399D01*
X175800D01*
X177799D02*
X179799Y109400D01*
X181798D02*
X183798D01*
X182798D01*
Y115398D01*
X181798Y114398D01*
X190795Y115398D02*
X188796Y114398D01*
X186796Y112399D01*
Y110400D01*
X187796Y109400D01*
X189795D01*
X190795Y110400D01*
Y111399D01*
X189795Y112399D01*
X186796D01*
X205800Y194400D02*
Y200398D01*
X208799D01*
X209799Y199398D01*
Y197399D01*
X208799Y196399D01*
X205800D01*
X207799D02*
X209799Y194400D01*
X211798D02*
X213797D01*
X212798D01*
Y200398D01*
X211798Y199398D01*
X220795Y200398D02*
X216796D01*
Y197399D01*
X218796Y198399D01*
X219795D01*
X220795Y197399D01*
Y195400D01*
X219795Y194400D01*
X217796D01*
X216796Y195400D01*
X205800Y201900D02*
Y207898D01*
X208799D01*
X209799Y206898D01*
Y204899D01*
X208799Y203899D01*
X205800D01*
X207799D02*
X209799Y201900D01*
X211798D02*
X213797D01*
X212798D01*
Y207898D01*
X211798Y206898D01*
X219795Y201900D02*
Y207898D01*
X216796Y204899D01*
X220795D01*
X125800Y109400D02*
Y115398D01*
X128799D01*
X129799Y114398D01*
Y112399D01*
X128799Y111399D01*
X125800D01*
X127799D02*
X129799Y109400D01*
X131798D02*
X133798D01*
X132798D01*
Y115398D01*
X131798Y114398D01*
X136796D02*
X137796Y115398D01*
X139795D01*
X140795Y114398D01*
Y113399D01*
X139795Y112399D01*
X138796D01*
X139795D01*
X140795Y111399D01*
Y110400D01*
X139795Y109400D01*
X137796D01*
X136796Y110400D01*
X185800Y161900D02*
Y167898D01*
X188799D01*
X189799Y166898D01*
Y164899D01*
X188799Y163899D01*
X185800D01*
X187799D02*
X189799Y161900D01*
X191798D02*
X193798D01*
X192798D01*
Y167898D01*
X191798Y166898D01*
X200795Y161900D02*
X196797D01*
X200795Y165899D01*
Y166898D01*
X199795Y167898D01*
X197796D01*
X196797Y166898D01*
X125800Y174400D02*
Y180398D01*
X128799D01*
X129799Y179398D01*
Y177399D01*
X128799Y176399D01*
X125800D01*
X127799D02*
X129799Y174400D01*
X131798D02*
X133798D01*
X132798D01*
Y180398D01*
X131798Y179398D01*
X136796Y174400D02*
X138796D01*
X137796D01*
Y180398D01*
X136796Y179398D01*
X208300Y169400D02*
Y175398D01*
X211299D01*
X212299Y174398D01*
Y172399D01*
X211299Y171399D01*
X208300D01*
X210299D02*
X212299Y169400D01*
X214298D02*
X216298D01*
X215298D01*
Y175398D01*
X214298Y174398D01*
X219297D02*
X220296Y175398D01*
X222295D01*
X223295Y174398D01*
Y170400D01*
X222295Y169400D01*
X220296D01*
X219297Y170400D01*
Y174398D01*
X103300Y96900D02*
Y102898D01*
X106299D01*
X107299Y101898D01*
Y99899D01*
X106299Y98899D01*
X103300D01*
X105299D02*
X107299Y96900D01*
X109298Y97900D02*
X110298Y96900D01*
X112297D01*
X113297Y97900D01*
Y101898D01*
X112297Y102898D01*
X110298D01*
X109298Y101898D01*
Y100899D01*
X110298Y99899D01*
X113297D01*
X125850Y164450D02*
Y170448D01*
X128849D01*
X129849Y169448D01*
Y167449D01*
X128849Y166449D01*
X125850D01*
X127849D02*
X129849Y164450D01*
X131848Y169448D02*
X132848Y170448D01*
X134847D01*
X135847Y169448D01*
Y168449D01*
X134847Y167449D01*
X135847Y166449D01*
Y165450D01*
X134847Y164450D01*
X132848D01*
X131848Y165450D01*
Y166449D01*
X132848Y167449D01*
X131848Y168449D01*
Y169448D01*
X132848Y167449D02*
X134847D01*
X250800Y224400D02*
Y230398D01*
X253799D01*
X254799Y229398D01*
Y227399D01*
X253799Y226399D01*
X250800D01*
X252799D02*
X254799Y224400D01*
X256798Y230398D02*
X260797D01*
Y229398D01*
X256798Y225400D01*
Y224400D01*
X105850Y211950D02*
Y217948D01*
X108849D01*
X109849Y216948D01*
Y214949D01*
X108849Y213949D01*
X105850D01*
X107849D02*
X109849Y211950D01*
X115847Y217948D02*
X113847Y216948D01*
X111848Y214949D01*
Y212950D01*
X112848Y211950D01*
X114847D01*
X115847Y212950D01*
Y213949D01*
X114847Y214949D01*
X111848D01*
X140800Y56900D02*
Y62898D01*
X143799D01*
X144799Y61898D01*
Y59899D01*
X143799Y58899D01*
X140800D01*
X142799D02*
X144799Y56900D01*
X150797Y62898D02*
X146798D01*
Y59899D01*
X148798Y60899D01*
X149797D01*
X150797Y59899D01*
Y57900D01*
X149797Y56900D01*
X147798D01*
X146798Y57900D01*
X200800Y36900D02*
Y42898D01*
X203799D01*
X204799Y41898D01*
Y39899D01*
X203799Y38899D01*
X200800D01*
X202799D02*
X204799Y36900D01*
X209797D02*
Y42898D01*
X206798Y39899D01*
X210797D01*
X288300Y84400D02*
Y90398D01*
X291299D01*
X292299Y89398D01*
Y87399D01*
X291299Y86399D01*
X288300D01*
X290299D02*
X292299Y84400D01*
X294298Y89398D02*
X295298Y90398D01*
X297297D01*
X298297Y89398D01*
Y88399D01*
X297297Y87399D01*
X296298D01*
X297297D01*
X298297Y86399D01*
Y85400D01*
X297297Y84400D01*
X295298D01*
X294298Y85400D01*
X260800Y59400D02*
Y65398D01*
X263799D01*
X264799Y64398D01*
Y62399D01*
X263799Y61399D01*
X260800D01*
X262799D02*
X264799Y59400D01*
X270797D02*
X266798D01*
X270797Y63399D01*
Y64398D01*
X269797Y65398D01*
X267798D01*
X266798Y64398D01*
X147099Y166100D02*
Y170098D01*
X146099Y171098D01*
X144100D01*
X143100Y170098D01*
Y166100D01*
X144100Y165100D01*
X146099D01*
X145099Y167099D02*
X147099Y165100D01*
X146099D02*
X147099Y166100D01*
X149098Y170098D02*
X150098Y171098D01*
X152097D01*
X153097Y170098D01*
Y169099D01*
X152097Y168099D01*
X151098D01*
X152097D01*
X153097Y167099D01*
Y166100D01*
X152097Y165100D01*
X150098D01*
X149098Y166100D01*
X129599Y191100D02*
Y195098D01*
X128599Y196098D01*
X126600D01*
X125600Y195098D01*
Y191100D01*
X126600Y190100D01*
X128599D01*
X127599Y192099D02*
X129599Y190100D01*
X128599D02*
X129599Y191100D01*
X135597Y190100D02*
X131598D01*
X135597Y194099D01*
Y195098D01*
X134597Y196098D01*
X132598D01*
X131598Y195098D01*
X247899Y206900D02*
Y210898D01*
X246899Y211898D01*
X244900D01*
X243900Y210898D01*
Y206900D01*
X244900Y205900D01*
X246899D01*
X245899Y207899D02*
X247899Y205900D01*
X246899D02*
X247899Y206900D01*
X249898Y205900D02*
X251898D01*
X250898D01*
Y211898D01*
X249898Y210898D01*
X152300Y184498D02*
Y178500D01*
X149301D01*
X148301Y179500D01*
Y183498D01*
X149301Y184498D01*
X152300D01*
X142303Y183498D02*
X143303Y184498D01*
X145302D01*
X146302Y183498D01*
Y179500D01*
X145302Y178500D01*
X143303D01*
X142303Y179500D01*
Y181499D01*
X144303D01*
X140304Y178500D02*
X138305D01*
X139304D01*
Y184498D01*
X140304Y183498D01*
X86119Y119309D02*
X87119Y120309D01*
X89118D01*
X90118Y119309D01*
Y118310D01*
X89118Y117310D01*
X87119D01*
X86119Y116310D01*
Y115311D01*
X87119Y114311D01*
X89118D01*
X90118Y115311D01*
X84120Y120309D02*
Y114311D01*
X82121Y116310D01*
X80121Y114311D01*
Y120309D01*
X74123D02*
X78122D01*
Y117310D01*
X76123Y118310D01*
X75123D01*
X74123Y117310D01*
Y115311D01*
X75123Y114311D01*
X77122D01*
X78122Y115311D01*
X282970Y119309D02*
X283969Y120309D01*
X285969D01*
X286968Y119309D01*
Y118310D01*
X285969Y117310D01*
X283969D01*
X282970Y116310D01*
Y115311D01*
X283969Y114311D01*
X285969D01*
X286968Y115311D01*
X280970Y120309D02*
Y114311D01*
X278971Y116310D01*
X276972Y114311D01*
Y120309D01*
X274972Y114311D02*
X272973D01*
X273973D01*
Y120309D01*
X274972Y119309D01*
X243600Y79939D02*
X244599Y80939D01*
X246599D01*
X247598Y79939D01*
Y78940D01*
X246599Y77940D01*
X244599D01*
X243600Y76940D01*
Y75941D01*
X244599Y74941D01*
X246599D01*
X247598Y75941D01*
X241600Y80939D02*
Y74941D01*
X239601Y76940D01*
X237602Y74941D01*
Y80939D01*
X231604Y74941D02*
X235602D01*
X231604Y78940D01*
Y79939D01*
X232603Y80939D01*
X234603D01*
X235602Y79939D01*
X184545Y60254D02*
X185544Y61254D01*
X187544D01*
X188543Y60254D01*
Y59255D01*
X187544Y58255D01*
X185544D01*
X184545Y57255D01*
Y56256D01*
X185544Y55256D01*
X187544D01*
X188543Y56256D01*
X182545Y61254D02*
Y55256D01*
X180546Y57255D01*
X178547Y55256D01*
Y61254D01*
X176547Y60254D02*
X175548Y61254D01*
X173548D01*
X172548Y60254D01*
Y59255D01*
X173548Y58255D01*
X174548D01*
X173548D01*
X172548Y57255D01*
Y56256D01*
X173548Y55256D01*
X175548D01*
X176547Y56256D01*
X125489Y79939D02*
X126489Y80939D01*
X128489D01*
X129488Y79939D01*
Y78940D01*
X128489Y77940D01*
X126489D01*
X125489Y76940D01*
Y75941D01*
X126489Y74941D01*
X128489D01*
X129488Y75941D01*
X123490Y80939D02*
Y74941D01*
X121491Y76940D01*
X119491Y74941D01*
Y80939D01*
X114493Y74941D02*
Y80939D01*
X117492Y77940D01*
X113493D01*
X218327Y95112D02*
Y89114D01*
X214328D01*
X208330Y95112D02*
X212329D01*
Y89114D01*
X208330D01*
X212329Y92113D02*
X210329D01*
X206331Y95112D02*
Y89114D01*
X203332D01*
X202332Y90114D01*
Y94112D01*
X203332Y95112D01*
X206331D01*
X200333Y94112D02*
X199333Y95112D01*
X197334D01*
X196334Y94112D01*
Y93113D01*
X197334Y92113D01*
X198333D01*
X197334D01*
X196334Y91114D01*
Y90114D01*
X197334Y89114D01*
X199333D01*
X200333Y90114D01*
X178957Y95112D02*
Y89114D01*
X174958D01*
X168960Y95112D02*
X172959D01*
Y89114D01*
X168960D01*
X172959Y92113D02*
X170959D01*
X166961Y95112D02*
Y89114D01*
X163962D01*
X162962Y90114D01*
Y94112D01*
X163962Y95112D01*
X166961D01*
X157964Y89114D02*
Y95112D01*
X160962Y92113D01*
X156964D01*
X250000Y253498D02*
Y247500D01*
X246001D01*
X240003Y253498D02*
X244002D01*
Y247500D01*
X240003D01*
X244002Y250499D02*
X242003D01*
X238004Y253498D02*
Y247500D01*
X235005D01*
X234005Y248500D01*
Y252498D01*
X235005Y253498D01*
X238004D01*
X228007Y247500D02*
X232006D01*
X228007Y251499D01*
Y252498D01*
X229007Y253498D01*
X231006D01*
X232006Y252498D01*
X222500Y225998D02*
Y220000D01*
X218501D01*
X212503Y225998D02*
X216502D01*
Y220000D01*
X212503D01*
X216502Y222999D02*
X214503D01*
X210504Y225998D02*
Y220000D01*
X207505D01*
X206505Y221000D01*
Y224998D01*
X207505Y225998D01*
X210504D01*
X204506Y220000D02*
X202506D01*
X203506D01*
Y225998D01*
X204506Y224998D01*
X319700Y141898D02*
X315701D01*
X317701D01*
Y135900D01*
X310703Y141898D02*
X312702D01*
X313702Y140898D01*
Y136900D01*
X312702Y135900D01*
X310703D01*
X309703Y136900D01*
Y140898D01*
X310703Y141898D01*
X307704Y135900D02*
Y141898D01*
X304705D01*
X303705Y140898D01*
Y138899D01*
X304705Y137899D01*
X307704D01*
X305705D02*
X303705Y135900D01*
X301706D02*
Y141898D01*
X298707D01*
X297707Y140898D01*
Y138899D01*
X298707Y137899D01*
X301706D01*
X299707D02*
X297707Y135900D01*
X295708D02*
X293708D01*
X294708D01*
Y141898D01*
X295708Y140898D01*
X77600Y141898D02*
X73601D01*
X75601D01*
Y135900D01*
X68603Y141898D02*
X70602D01*
X71602Y140898D01*
Y136900D01*
X70602Y135900D01*
X68603D01*
X67603Y136900D01*
Y140898D01*
X68603Y141898D01*
X65604Y135900D02*
Y141898D01*
X62605D01*
X61605Y140898D01*
Y138899D01*
X62605Y137899D01*
X65604D01*
X63605D02*
X61605Y135900D01*
X59606D02*
Y141898D01*
X56607D01*
X55607Y140898D01*
Y138899D01*
X56607Y137899D01*
X59606D01*
X57607D02*
X55607Y135900D01*
X49609D02*
X53608D01*
X49609Y139899D01*
Y140898D01*
X50609Y141898D01*
X52608D01*
X53608Y140898D01*
X199600Y271798D02*
X195601D01*
X197601D01*
Y265800D01*
X190603Y271798D02*
X192602D01*
X193602Y270798D01*
Y266800D01*
X192602Y265800D01*
X190603D01*
X189603Y266800D01*
Y270798D01*
X190603Y271798D01*
X187604Y265800D02*
Y271798D01*
X184605D01*
X183605Y270798D01*
Y268799D01*
X184605Y267799D01*
X187604D01*
X185605D02*
X183605Y265800D01*
X181606D02*
Y271798D01*
X178607D01*
X177607Y270798D01*
Y268799D01*
X178607Y267799D01*
X181606D01*
X179606D02*
X177607Y265800D01*
X175608Y270798D02*
X174608Y271798D01*
X172609D01*
X171609Y270798D01*
Y269799D01*
X172609Y268799D01*
X173609D01*
X172609D01*
X171609Y267799D01*
Y266800D01*
X172609Y265800D01*
X174608D01*
X175608Y266800D01*
X71999Y230998D02*
X70999Y231998D01*
X69000D01*
X68000Y230998D01*
Y227000D01*
X69000Y226000D01*
X70999D01*
X71999Y227000D01*
X73998Y226000D02*
Y231998D01*
X77997Y226000D01*
Y231998D01*
X79996Y230998D02*
X80996Y231998D01*
X82995D01*
X83995Y230998D01*
Y229999D01*
X82995Y228999D01*
X81995D01*
X82995D01*
X83995Y227999D01*
Y227000D01*
X82995Y226000D01*
X80996D01*
X79996Y227000D01*
X281999Y230998D02*
X280999Y231998D01*
X279000D01*
X278000Y230998D01*
Y227000D01*
X279000Y226000D01*
X280999D01*
X281999Y227000D01*
X283998Y226000D02*
Y231998D01*
X287997Y226000D01*
Y231998D01*
X293995Y226000D02*
X289996D01*
X293995Y229999D01*
Y230998D01*
X292995Y231998D01*
X290996D01*
X289996Y230998D01*
X272599Y139898D02*
X271599Y140898D01*
X269600D01*
X268600Y139898D01*
Y135900D01*
X269600Y134900D01*
X271599D01*
X272599Y135900D01*
X274598Y134900D02*
X276597D01*
X275598D01*
Y140898D01*
X274598Y139898D01*
X283595Y134900D02*
X279596D01*
X283595Y138899D01*
Y139898D01*
X282595Y140898D01*
X280596D01*
X279596Y139898D01*
X195599Y102898D02*
X194599Y103898D01*
X192600D01*
X191600Y102898D01*
Y98900D01*
X192600Y97900D01*
X194599D01*
X195599Y98900D01*
X197598Y97900D02*
X199598D01*
X198598D01*
Y103898D01*
X197598Y102898D01*
X202596D02*
X203596Y103898D01*
X205595D01*
X206595Y102898D01*
Y101899D01*
X205595Y100899D01*
X204596D01*
X205595D01*
X206595Y99899D01*
Y98900D01*
X205595Y97900D01*
X203596D01*
X202596Y98900D01*
D31*
X155807Y158346D02*
G03*
X155807Y158346I-492J0D01*
G01*
X138307Y183346D02*
G03*
X138307Y183346I-492J0D01*
G01*
X253839Y189685D02*
G03*
X253839Y189685I-492J0D01*
G01*
D32*
X215000Y120138D02*
Y124862D01*
X197500Y192638D02*
Y197362D01*
X165000D02*
X165000Y192638D01*
X150000Y197362D02*
X150000Y192638D01*
X150000Y185138D02*
Y189862D01*
X165000Y185138D02*
X165000Y189862D01*
X267500Y50138D02*
Y54862D01*
X295000Y75138D02*
Y79862D01*
X207500Y27638D02*
Y32362D01*
X147500Y47638D02*
Y52362D01*
X110000Y87638D02*
Y92362D01*
X132500Y165138D02*
Y169862D01*
X215000Y160138D02*
Y164862D01*
X192500Y152638D02*
Y157362D01*
X132500Y100138D02*
Y104862D01*
X182500Y100138D02*
Y104862D01*
X212500Y185138D02*
Y189862D01*
Y192638D02*
Y197362D01*
X132500Y120138D02*
Y124862D01*
Y135138D02*
Y139862D01*
X192500Y142638D02*
Y147362D01*
X215000Y132638D02*
Y137362D01*
X132500Y155138D02*
Y159862D01*
X112500Y202638D02*
Y207362D01*
X257500Y215138D02*
Y219862D01*
X149213Y160906D02*
X152756D01*
Y157756D02*
Y160906D01*
X149213Y149094D02*
X152756D01*
Y152244D01*
X131713Y185906D02*
X135256D01*
Y182756D02*
Y185906D01*
X131713Y174094D02*
X135256D01*
Y177244D01*
X255906Y192244D02*
Y195787D01*
X252756Y192244D02*
X255906D01*
X244094D02*
Y195787D01*
Y192244D02*
X247244D01*
X192638Y85000D02*
X197362D01*
X277500Y125138D02*
Y129862D01*
M02*
